<?xml version="1.0" encoding="UTF-8" standalone="no"?>
<!DOCTYPE svg PUBLIC "-//W3C//DTD SVG 1.1//EN" "http://www.w3.org/Graphics/SVG/1.1/DTD/svg11.dtd">
<!-- Generated by Microsoft Visio, SVG Export compiling2.svg Page-6 -->
<svg xmlns="http://www.w3.org/2000/svg" xmlns:xlink="http://www.w3.org/1999/xlink" xmlns:ev="http://www.w3.org/2001/xml-events"
		xmlns:v="http://schemas.microsoft.com/visio/2003/SVGExtensions/" width="14in" height="4.1in" viewBox="0 0 1008 295.2"
		xml:space="preserve" color-interpolation-filters="sRGB" class="st13">
	<v:documentProperties v:langID="1033">
		<v:userDefs>
			<v:ud v:nameU="DocShowPicture" v:prompt="" v:val="VT0(1):26"/>
			<v:ud v:nameU="msvConvertTheme"/>
		</v:userDefs>
	</v:documentProperties>
	<v:reviewers>
		<v:reviewer v:name="Randy Hollines" v:initials="RH" color="#ff0000" v:reviewerId="1" v:currentIndex="2"/>
	</v:reviewers>

	<style type="text/css">
	<![CDATA[
		.st1 {visibility:visible}
		.st2 {fill:#cdcdcd;fill-opacity:0.5;stroke:#cdcdcd;stroke-linecap:round;stroke-linejoin:round;stroke-opacity:0.5}
		.st3 {fill:url(#grad0-6);stroke:#404040;stroke-linecap:round;stroke-linejoin:round;stroke-width:0.25}
		.st4 {fill:url(#grad0-17);stroke:#404040;stroke-linecap:round;stroke-linejoin:round;stroke-width:0.25}
		.st5 {fill:#000000;font-family:Calibri;font-size:1.16666em;font-weight:bold}
		.st6 {stroke:#cdcdcd;stroke-linecap:round;stroke-linejoin:round;stroke-opacity:0.5;stroke-width:0.25}
		.st7 {stroke:#404040;stroke-linecap:round;stroke-linejoin:round;stroke-width:0.25}
		.st8 {fill:url(#grad0-152);stroke:#404040;stroke-linecap:round;stroke-linejoin:round;stroke-width:0.25}
		.st9 {fill:#000000;font-family:Calibri;font-size:0.833336em}
		.st10 {font-size:1em}
		.st11 {fill:none;stroke:none;stroke-linecap:round;stroke-linejoin:round;stroke-width:0.25}
		.st12 {fill:#595959;stroke:none;stroke-linecap:butt;stroke-width:0.75}
		.st13 {fill:none;fill-rule:evenodd;font-size:12px;overflow:visible;stroke-linecap:square;stroke-miterlimit:3}
	]]>
	</style>

	<defs id="Patterns_And_Gradients">
		<linearGradient id="grad0-6" x1="0" y1="0" x2="1" y2="0" gradientTransform="rotate(270 0.5 0.5)">
			<stop offset="0" stop-color="#f0f0f0" stop-opacity="1"/>
			<stop offset="1" stop-color="#ffffff" stop-opacity="1"/>
		</linearGradient>
		<linearGradient id="grad0-17" x1="0" y1="0" x2="1" y2="0" gradientTransform="rotate(270 0.5 0.5)">
			<stop offset="0" stop-color="#cacaca" stop-opacity="1"/>
			<stop offset="1" stop-color="#d9d9d9" stop-opacity="1"/>
		</linearGradient>
		<linearGradient id="grad0-152" x1="0" y1="0" x2="1" y2="0" gradientTransform="rotate(270 0.5 0.5)">
			<stop offset="0" stop-color="#b0b0b0" stop-opacity="1"/>
			<stop offset="1" stop-color="#bfbfbf" stop-opacity="1"/>
		</linearGradient>
	</defs>
	<g v:mID="8" v:index="6" v:groupContext="foregroundPage">
		<v:custProps>
			<v:cp v:nameU="ShapeClass" v:lbl="Shape Class" v:type="1" v:invis="true" v:langID="1033"
					v:val="VT4({52BC4E31-A33B-11d1-B2B9-006008BD347E})"/>
		</v:custProps>
		<v:userDefs>
			<v:ud v:nameU="msvThemeColors" v:val="VT0(36):26"/>
			<v:ud v:nameU="msvThemeEffects" v:val="VT0(16):26"/>
			<v:ud v:nameU="msvThemeOrder" v:val="VT0(1):26"/>
		</v:userDefs>
		<title>Page-6</title>
		<v:pageProperties v:drawingScale="1" v:pageScale="1" v:drawingUnits="0" v:shadowOffsetX="9" v:shadowOffsetY="-9"/>
		<v:layer v:name="New Plants" v:index="0"/>
		<v:layer v:name="Plant" v:index="1"/>
		<v:layer v:name="Connector" v:index="2"/>
		<g id="shape84-1" v:mID="84" v:groupContext="shape" transform="translate(871.2,-5.4)">
			<title>Rectangle.84</title>
			<v:userDefs>
				<v:ud v:nameU="visVersion" v:val="VT0(15):26"/>
				<v:ud v:nameU="msvThemeColors" v:val="VT0(36):26"/>
				<v:ud v:nameU="msvThemeEffects" v:val="VT0(16):26"/>
			</v:userDefs>
			<g id="shadow84-2" v:groupContext="shadow" v:shadowOffsetX="1.44" v:shadowOffsetY="-1.44" v:shadowType="1"
					transform="matrix(1,0,0,1,1.44,1.44)" class="st1">
				<rect x="0" y="18" width="126" height="277.2" class="st2"/>
			</g>
			<rect x="0" y="18" width="126" height="277.2" class="st3"/>
		</g>
		<g id="shape83-7" v:mID="83" v:groupContext="shape" transform="translate(12.4,-115.2)">
			<title>Rectangle.61</title>
			<v:userDefs>
				<v:ud v:nameU="visVersion" v:val="VT0(15):26"/>
				<v:ud v:nameU="msvThemeColors" v:val="VT0(36):26"/>
				<v:ud v:nameU="msvThemeEffects" v:val="VT0(16):26"/>
			</v:userDefs>
			<g id="shadow83-8" v:groupContext="shadow" v:shadowOffsetX="1.44" v:shadowOffsetY="-1.44" v:shadowType="1"
					transform="matrix(1,0,0,1,1.44,1.44)" class="st1">
				<rect x="0" y="237.6" width="248.4" height="57.6" class="st2"/>
			</g>
			<rect x="0" y="237.6" width="248.4" height="57.6" class="st3"/>
		</g>
		<g id="shape1-12" v:mID="1" v:groupContext="shape" transform="translate(385.2,-40.5)">
			<title>Circle</title>
			<desc>2</desc>
			<v:userDefs>
				<v:ud v:nameU="visVersion" v:val="VT0(12):26"/>
				<v:ud v:nameU="msvThemeColors" v:val="VT0(36):26"/>
				<v:ud v:nameU="msvThemeEffects" v:val="VT0(16):26"/>
			</v:userDefs>
			<v:textBlock v:margins="rect(4,4,4,4)"/>
			<v:textRect cx="18" cy="277.2" width="36" height="36"/>
			<g id="shadow1-13" v:groupContext="shadow" v:shadowOffsetX="1.44" v:shadowOffsetY="-1.44" v:shadowType="1"
					transform="matrix(1,0,0,1,1.44,1.44)" class="st1">
				<path d="M0 277.2 A18 18 0 0 1 36 277.2 A18 18 0 1 1 0 277.2 Z" class="st2"/>
			</g>
			<path d="M0 277.2 A18 18 0 0 1 36 277.2 A18 18 0 1 1 0 277.2 Z" class="st4"/>
			<text x="14.45" y="281.4" class="st5" v:langID="1033"><v:paragraph v:horizAlign="1"/><v:tabList/>2</text>		</g>
		<g id="shape2-19" v:mID="2" v:groupContext="shape" transform="translate(471.6,-38.7)">
			<title>Circle.2</title>
			<desc>3.14</desc>
			<v:userDefs>
				<v:ud v:nameU="visVersion" v:val="VT0(12):26"/>
				<v:ud v:nameU="msvThemeColors" v:val="VT0(36):26"/>
				<v:ud v:nameU="msvThemeEffects" v:val="VT0(16):26"/>
			</v:userDefs>
			<v:textBlock v:margins="rect(4,4,4,4)"/>
			<v:textRect cx="18" cy="277.2" width="36" height="36"/>
			<g id="shadow2-20" v:groupContext="shadow" v:shadowOffsetX="1.44" v:shadowOffsetY="-1.44" v:shadowType="1"
					transform="matrix(1,0,0,1,1.44,1.44)" class="st1">
				<path d="M0 277.2 A18 18 0 0 1 36 277.2 A18 18 0 1 1 0 277.2 Z" class="st2"/>
			</g>
			<path d="M0 277.2 A18 18 0 0 1 36 277.2 A18 18 0 1 1 0 277.2 Z" class="st4"/>
			<text x="5.49" y="281.4" class="st5" v:langID="1033"><v:paragraph v:horizAlign="1"/><v:tabList/>3.14</text>		</g>
		<g id="shape3-25" v:mID="3" v:groupContext="shape" transform="translate(741.6,169.2) rotate(90)">
			<title>Double tree sloped.28</title>
			<v:userDefs>
				<v:ud v:nameU="Scale" v:val="VT0(1):26"/>
				<v:ud v:nameU="AntiScale" v:val="VT0(1):26"/>
				<v:ud v:nameU="visVersion" v:val="VT0(12):26"/>
				<v:ud v:nameU="msvThemeColors" v:val="VT0(36):26"/>
				<v:ud v:nameU="msvThemeEffects" v:val="VT0(16):26"/>
			</v:userDefs>
			<g id="shadow3-26" v:groupContext="shadow" v:shadowOffsetX="1.44" v:shadowOffsetY="-1.44" v:shadowType="1"
					transform="matrix(1,0,0,1,1.44,-1.44)" class="st1">
				<path d="M0 295.2 L27.9 295.2" class="st6"/>
				<path d="M27.9 295.2 L38.7 252 L51.3 252" class="st6"/>
				<path d="M27.9 295.2 L38.7 338.4 L49.5 338.4" class="st6"/>
			</g>
			<path d="M0 295.2 L27.9 295.2" class="st7"/>
			<path d="M27.9 295.2 L38.7 252 L51.3 252" class="st7"/>
			<path d="M27.9 295.2 L38.7 338.4 L49.5 338.4" class="st7"/>
		</g>
		<g id="shape4-36" v:mID="4" v:groupContext="shape" transform="translate(428.4,-126)">
			<title>Circle.4</title>
			<desc>‘+’</desc>
			<v:userDefs>
				<v:ud v:nameU="visVersion" v:val="VT0(12):26"/>
				<v:ud v:nameU="msvThemeColors" v:val="VT0(36):26"/>
				<v:ud v:nameU="msvThemeEffects" v:val="VT0(16):26"/>
			</v:userDefs>
			<v:textBlock v:margins="rect(4,4,4,4)"/>
			<v:textRect cx="18" cy="277.2" width="36" height="36"/>
			<g id="shadow4-37" v:groupContext="shadow" v:shadowOffsetX="1.44" v:shadowOffsetY="-1.44" v:shadowType="1"
					transform="matrix(1,0,0,1,1.44,1.44)" class="st1">
				<path d="M0 277.2 A18 18 0 0 1 36 277.2 A18 18 0 1 1 0 277.2 Z" class="st2"/>
			</g>
			<path d="M0 277.2 A18 18 0 0 1 36 277.2 A18 18 0 1 1 0 277.2 Z" class="st4"/>
			<text x="10.9" y="281.4" class="st5" v:langID="1033"><v:paragraph v:horizAlign="1"/><v:tabList/>‘+’</text>		</g>
		<g id="shape5-42" v:mID="5" v:groupContext="shape" transform="translate(698.4,79.2) rotate(90)">
			<title>Double tree sloped.5</title>
			<v:userDefs>
				<v:ud v:nameU="Scale" v:val="VT0(1):26"/>
				<v:ud v:nameU="AntiScale" v:val="VT0(1):26"/>
				<v:ud v:nameU="visVersion" v:val="VT0(12):26"/>
				<v:ud v:nameU="msvThemeColors" v:val="VT0(36):26"/>
				<v:ud v:nameU="msvThemeEffects" v:val="VT0(16):26"/>
			</v:userDefs>
			<g id="shadow5-43" v:groupContext="shadow" v:shadowOffsetX="1.44" v:shadowOffsetY="-1.44" v:shadowType="1"
					transform="matrix(1,0,0,1,1.44,-1.44)" class="st1">
				<path d="M0 295.2 L27.9 295.2" class="st6"/>
				<path d="M27.9 295.2 L38.7 252 L54 252" class="st6"/>
				<path d="M27.9 295.2 L38.7 338.4 L54 338.4" class="st6"/>
			</g>
			<path d="M0 295.2 L27.9 295.2" class="st7"/>
			<path d="M27.9 295.2 L38.7 252 L54 252" class="st7"/>
			<path d="M27.9 295.2 L38.7 338.4 L54 338.4" class="st7"/>
		</g>
		<g id="shape6-53" v:mID="6" v:groupContext="shape" transform="translate(342,-126)">
			<title>Circle.6</title>
			<desc>‘a’</desc>
			<v:userDefs>
				<v:ud v:nameU="visVersion" v:val="VT0(12):26"/>
				<v:ud v:nameU="msvThemeColors" v:val="VT0(36):26"/>
				<v:ud v:nameU="msvThemeEffects" v:val="VT0(16):26"/>
			</v:userDefs>
			<v:textBlock v:margins="rect(4,4,4,4)"/>
			<v:textRect cx="18" cy="277.2" width="36" height="36"/>
			<g id="shadow6-54" v:groupContext="shadow" v:shadowOffsetX="1.44" v:shadowOffsetY="-1.44" v:shadowType="1"
					transform="matrix(1,0,0,1,1.44,1.44)" class="st1">
				<path d="M0 277.2 A18 18 0 0 1 36 277.2 A18 18 0 1 1 0 277.2 Z" class="st2"/>
			</g>
			<path d="M0 277.2 A18 18 0 0 1 36 277.2 A18 18 0 1 1 0 277.2 Z" class="st4"/>
			<text x="10.94" y="281.4" class="st5" v:langID="1033"><v:paragraph v:horizAlign="1"/><v:tabList/>‘a’</text>		</g>
		<g id="shape7-59" v:mID="7" v:groupContext="shape" transform="translate(385.2,-216)">
			<title>Circle.7</title>
			<desc>‘:=’</desc>
			<v:userDefs>
				<v:ud v:nameU="visVersion" v:val="VT0(12):26"/>
				<v:ud v:nameU="msvThemeColors" v:val="VT0(36):26"/>
				<v:ud v:nameU="msvThemeEffects" v:val="VT0(16):26"/>
			</v:userDefs>
			<v:textBlock v:margins="rect(4,4,4,4)"/>
			<v:textRect cx="18" cy="277.2" width="36" height="36"/>
			<g id="shadow7-60" v:groupContext="shadow" v:shadowOffsetX="1.44" v:shadowOffsetY="-1.44" v:shadowType="1"
					transform="matrix(1,0,0,1,1.44,1.44)" class="st1">
				<path d="M0 277.2 A18 18 0 0 1 36 277.2 A18 18 0 1 1 0 277.2 Z" class="st2"/>
			</g>
			<path d="M0 277.2 A18 18 0 0 1 36 277.2 A18 18 0 1 1 0 277.2 Z" class="st4"/>
			<text x="8.97" y="281.4" class="st5" v:langID="1033"><v:paragraph v:horizAlign="1"/><v:tabList/>‘:=’</text>		</g>
		<g id="shape8-65" v:mID="8" v:groupContext="shape" transform="translate(663.4,-38.7)">
			<title>Circle.8</title>
			<desc>2</desc>
			<v:userDefs>
				<v:ud v:nameU="visVersion" v:val="VT0(12):26"/>
				<v:ud v:nameU="msvThemeColors" v:val="VT0(36):26"/>
				<v:ud v:nameU="msvThemeEffects" v:val="VT0(16):26"/>
			</v:userDefs>
			<v:textBlock v:margins="rect(4,4,4,4)"/>
			<v:textRect cx="18" cy="277.2" width="36" height="36"/>
			<g id="shadow8-66" v:groupContext="shadow" v:shadowOffsetX="1.44" v:shadowOffsetY="-1.44" v:shadowType="1"
					transform="matrix(1,0,0,1,1.44,1.44)" class="st1">
				<path d="M0 277.2 A18 18 0 0 1 36 277.2 A18 18 0 1 1 0 277.2 Z" class="st2"/>
			</g>
			<path d="M0 277.2 A18 18 0 0 1 36 277.2 A18 18 0 1 1 0 277.2 Z" class="st4"/>
			<text x="14.45" y="281.4" class="st5" v:langID="1033"><v:paragraph v:horizAlign="1"/><v:tabList/>2</text>		</g>
		<g id="shape9-71" v:mID="9" v:groupContext="shape" transform="translate(749.8,-36.9)">
			<title>Circle.9</title>
			<desc>3.14</desc>
			<v:userDefs>
				<v:ud v:nameU="visVersion" v:val="VT0(12):26"/>
				<v:ud v:nameU="msvThemeColors" v:val="VT0(36):26"/>
				<v:ud v:nameU="msvThemeEffects" v:val="VT0(16):26"/>
			</v:userDefs>
			<v:textBlock v:margins="rect(4,4,4,4)"/>
			<v:textRect cx="18" cy="277.2" width="36" height="36"/>
			<g id="shadow9-72" v:groupContext="shadow" v:shadowOffsetX="1.44" v:shadowOffsetY="-1.44" v:shadowType="1"
					transform="matrix(1,0,0,1,1.44,1.44)" class="st1">
				<path d="M0 277.2 A18 18 0 0 1 36 277.2 A18 18 0 1 1 0 277.2 Z" class="st2"/>
			</g>
			<path d="M0 277.2 A18 18 0 0 1 36 277.2 A18 18 0 1 1 0 277.2 Z" class="st4"/>
			<text x="5.49" y="281.4" class="st5" v:langID="1033"><v:paragraph v:horizAlign="1"/><v:tabList/>3.14</text>		</g>
		<g id="shape10-77" v:mID="10" v:groupContext="shape" transform="translate(1019.8,171) rotate(90)">
			<title>Double tree sloped.10</title>
			<v:userDefs>
				<v:ud v:nameU="Scale" v:val="VT0(1):26"/>
				<v:ud v:nameU="AntiScale" v:val="VT0(1):26"/>
				<v:ud v:nameU="visVersion" v:val="VT0(12):26"/>
				<v:ud v:nameU="msvThemeColors" v:val="VT0(36):26"/>
				<v:ud v:nameU="msvThemeEffects" v:val="VT0(16):26"/>
			</v:userDefs>
			<g id="shadow10-78" v:groupContext="shadow" v:shadowOffsetX="1.44" v:shadowOffsetY="-1.44" v:shadowType="1"
					transform="matrix(1,0,0,1,1.44,-1.44)" class="st1">
				<path d="M0 295.2 L27.9 295.2" class="st6"/>
				<path d="M27.9 295.2 L38.7 252 L51.3 252" class="st6"/>
				<path d="M27.9 295.2 L38.7 338.4 L49.5 338.4" class="st6"/>
			</g>
			<path d="M0 295.2 L27.9 295.2" class="st7"/>
			<path d="M27.9 295.2 L38.7 252 L51.3 252" class="st7"/>
			<path d="M27.9 295.2 L38.7 338.4 L49.5 338.4" class="st7"/>
		</g>
		<g id="shape11-88" v:mID="11" v:groupContext="shape" transform="translate(706.6,-124.2)">
			<title>Circle.11</title>
			<desc>‘+’</desc>
			<v:userDefs>
				<v:ud v:nameU="visVersion" v:val="VT0(12):26"/>
				<v:ud v:nameU="msvThemeColors" v:val="VT0(36):26"/>
				<v:ud v:nameU="msvThemeEffects" v:val="VT0(16):26"/>
			</v:userDefs>
			<v:textBlock v:margins="rect(4,4,4,4)"/>
			<v:textRect cx="18" cy="277.2" width="36" height="36"/>
			<g id="shadow11-89" v:groupContext="shadow" v:shadowOffsetX="1.44" v:shadowOffsetY="-1.44" v:shadowType="1"
					transform="matrix(1,0,0,1,1.44,1.44)" class="st1">
				<path d="M0 277.2 A18 18 0 0 1 36 277.2 A18 18 0 1 1 0 277.2 Z" class="st2"/>
			</g>
			<path d="M0 277.2 A18 18 0 0 1 36 277.2 A18 18 0 1 1 0 277.2 Z" class="st4"/>
			<text x="10.9" y="281.4" class="st5" v:langID="1033"><v:paragraph v:horizAlign="1"/><v:tabList/>‘+’</text>		</g>
		<g id="shape12-94" v:mID="12" v:groupContext="shape" transform="translate(976.6,81) rotate(90)">
			<title>Double tree sloped.12</title>
			<v:userDefs>
				<v:ud v:nameU="Scale" v:val="VT0(1):26"/>
				<v:ud v:nameU="AntiScale" v:val="VT0(1):26"/>
				<v:ud v:nameU="visVersion" v:val="VT0(12):26"/>
				<v:ud v:nameU="msvThemeColors" v:val="VT0(36):26"/>
				<v:ud v:nameU="msvThemeEffects" v:val="VT0(16):26"/>
			</v:userDefs>
			<g id="shadow12-95" v:groupContext="shadow" v:shadowOffsetX="1.44" v:shadowOffsetY="-1.44" v:shadowType="1"
					transform="matrix(1,0,0,1,1.44,-1.44)" class="st1">
				<path d="M0 295.2 L27.9 295.2" class="st6"/>
				<path d="M27.9 295.2 L38.7 252 L54 252" class="st6"/>
				<path d="M27.9 295.2 L38.7 338.4 L54 338.4" class="st6"/>
			</g>
			<path d="M0 295.2 L27.9 295.2" class="st7"/>
			<path d="M27.9 295.2 L38.7 252 L54 252" class="st7"/>
			<path d="M27.9 295.2 L38.7 338.4 L54 338.4" class="st7"/>
		</g>
		<g id="shape13-105" v:mID="13" v:groupContext="shape" transform="translate(620.2,-124.2)">
			<title>Circle.13</title>
			<desc>‘a’</desc>
			<v:userDefs>
				<v:ud v:nameU="visVersion" v:val="VT0(12):26"/>
				<v:ud v:nameU="msvThemeColors" v:val="VT0(36):26"/>
				<v:ud v:nameU="msvThemeEffects" v:val="VT0(16):26"/>
			</v:userDefs>
			<v:textBlock v:margins="rect(4,4,4,4)"/>
			<v:textRect cx="18" cy="277.2" width="36" height="36"/>
			<g id="shadow13-106" v:groupContext="shadow" v:shadowOffsetX="1.44" v:shadowOffsetY="-1.44" v:shadowType="1"
					transform="matrix(1,0,0,1,1.44,1.44)" class="st1">
				<path d="M0 277.2 A18 18 0 0 1 36 277.2 A18 18 0 1 1 0 277.2 Z" class="st2"/>
			</g>
			<path d="M0 277.2 A18 18 0 0 1 36 277.2 A18 18 0 1 1 0 277.2 Z" class="st4"/>
			<text x="10.94" y="281.4" class="st5" v:langID="1033"><v:paragraph v:horizAlign="1"/><v:tabList/>‘a’</text>		</g>
		<g id="shape14-111" v:mID="14" v:groupContext="shape" transform="translate(663.4,-214.2)">
			<title>Circle.14</title>
			<desc>‘:=’</desc>
			<v:userDefs>
				<v:ud v:nameU="visVersion" v:val="VT0(12):26"/>
				<v:ud v:nameU="msvThemeColors" v:val="VT0(36):26"/>
				<v:ud v:nameU="msvThemeEffects" v:val="VT0(16):26"/>
			</v:userDefs>
			<v:textBlock v:margins="rect(4,4,4,4)"/>
			<v:textRect cx="18" cy="277.2" width="36" height="36"/>
			<g id="shadow14-112" v:groupContext="shadow" v:shadowOffsetX="1.44" v:shadowOffsetY="-1.44" v:shadowType="1"
					transform="matrix(1,0,0,1,1.44,1.44)" class="st1">
				<path d="M0 277.2 A18 18 0 0 1 36 277.2 A18 18 0 1 1 0 277.2 Z" class="st2"/>
			</g>
			<path d="M0 277.2 A18 18 0 0 1 36 277.2 A18 18 0 1 1 0 277.2 Z" class="st4"/>
			<text x="8.97" y="281.4" class="st5" v:langID="1033"><v:paragraph v:horizAlign="1"/><v:tabList/>‘:=’</text>		</g>
		<g id="shape42-117" v:mID="42" v:groupContext="shape" transform="translate(21.6,-126)">
			<title>Circle.42</title>
			<desc>‘a’</desc>
			<v:userDefs>
				<v:ud v:nameU="visVersion" v:val="VT0(12):26"/>
				<v:ud v:nameU="msvThemeColors" v:val="VT0(36):26"/>
				<v:ud v:nameU="msvThemeEffects" v:val="VT0(16):26"/>
			</v:userDefs>
			<v:textBlock v:margins="rect(4,4,4,4)"/>
			<v:textRect cx="18" cy="277.2" width="36" height="36"/>
			<g id="shadow42-118" v:groupContext="shadow" v:shadowOffsetX="1.44" v:shadowOffsetY="-1.44" v:shadowType="1"
					transform="matrix(1,0,0,1,1.44,1.44)" class="st1">
				<path d="M0 277.2 A18 18 0 0 1 36 277.2 A18 18 0 1 1 0 277.2 Z" class="st2"/>
			</g>
			<path d="M0 277.2 A18 18 0 0 1 36 277.2 A18 18 0 1 1 0 277.2 Z" class="st4"/>
			<text x="10.94" y="281.4" class="st5" v:langID="1033"><v:paragraph v:horizAlign="1"/><v:tabList/>‘a’</text>		</g>
		<g id="shape43-123" v:mID="43" v:groupContext="shape" transform="translate(72,-126)">
			<title>Circle.43</title>
			<desc>‘:=’</desc>
			<v:userDefs>
				<v:ud v:nameU="visVersion" v:val="VT0(12):26"/>
				<v:ud v:nameU="msvThemeColors" v:val="VT0(36):26"/>
				<v:ud v:nameU="msvThemeEffects" v:val="VT0(16):26"/>
			</v:userDefs>
			<v:textBlock v:margins="rect(4,4,4,4)"/>
			<v:textRect cx="18" cy="277.2" width="36" height="36"/>
			<g id="shadow43-124" v:groupContext="shadow" v:shadowOffsetX="1.44" v:shadowOffsetY="-1.44" v:shadowType="1"
					transform="matrix(1,0,0,1,1.44,1.44)" class="st1">
				<path d="M0 277.2 A18 18 0 0 1 36 277.2 A18 18 0 1 1 0 277.2 Z" class="st2"/>
			</g>
			<path d="M0 277.2 A18 18 0 0 1 36 277.2 A18 18 0 1 1 0 277.2 Z" class="st4"/>
			<text x="8.97" y="281.4" class="st5" v:langID="1033"><v:paragraph v:horizAlign="1"/><v:tabList/>‘:=’</text>		</g>
		<g id="shape44-129" v:mID="44" v:groupContext="shape" transform="translate(122.4,-126)">
			<title>Circle.44</title>
			<desc>2</desc>
			<v:userDefs>
				<v:ud v:nameU="visVersion" v:val="VT0(12):26"/>
				<v:ud v:nameU="msvThemeColors" v:val="VT0(36):26"/>
				<v:ud v:nameU="msvThemeEffects" v:val="VT0(16):26"/>
			</v:userDefs>
			<v:textBlock v:margins="rect(4,4,4,4)"/>
			<v:textRect cx="18" cy="277.2" width="36" height="36"/>
			<g id="shadow44-130" v:groupContext="shadow" v:shadowOffsetX="1.44" v:shadowOffsetY="-1.44" v:shadowType="1"
					transform="matrix(1,0,0,1,1.44,1.44)" class="st1">
				<path d="M0 277.2 A18 18 0 0 1 36 277.2 A18 18 0 1 1 0 277.2 Z" class="st2"/>
			</g>
			<path d="M0 277.2 A18 18 0 0 1 36 277.2 A18 18 0 1 1 0 277.2 Z" class="st4"/>
			<text x="14.45" y="281.4" class="st5" v:langID="1033"><v:paragraph v:horizAlign="1"/><v:tabList/>2</text>		</g>
		<g id="shape45-135" v:mID="45" v:groupContext="shape" transform="translate(169.2,-126)">
			<title>Circle.45</title>
			<desc>‘+’</desc>
			<v:userDefs>
				<v:ud v:nameU="visVersion" v:val="VT0(12):26"/>
				<v:ud v:nameU="msvThemeColors" v:val="VT0(36):26"/>
				<v:ud v:nameU="msvThemeEffects" v:val="VT0(16):26"/>
			</v:userDefs>
			<v:textBlock v:margins="rect(4,4,4,4)"/>
			<v:textRect cx="18" cy="277.2" width="36" height="36"/>
			<g id="shadow45-136" v:groupContext="shadow" v:shadowOffsetX="1.44" v:shadowOffsetY="-1.44" v:shadowType="1"
					transform="matrix(1,0,0,1,1.44,1.44)" class="st1">
				<path d="M0 277.2 A18 18 0 0 1 36 277.2 A18 18 0 1 1 0 277.2 Z" class="st2"/>
			</g>
			<path d="M0 277.2 A18 18 0 0 1 36 277.2 A18 18 0 1 1 0 277.2 Z" class="st4"/>
			<text x="10.9" y="281.4" class="st5" v:langID="1033"><v:paragraph v:horizAlign="1"/><v:tabList/>‘+’</text>		</g>
		<g id="shape46-141" v:mID="46" v:groupContext="shape" transform="translate(216,-126)">
			<title>Circle.46</title>
			<desc>3.14</desc>
			<v:userDefs>
				<v:ud v:nameU="visVersion" v:val="VT0(12):26"/>
				<v:ud v:nameU="msvThemeColors" v:val="VT0(36):26"/>
				<v:ud v:nameU="msvThemeEffects" v:val="VT0(16):26"/>
			</v:userDefs>
			<v:textBlock v:margins="rect(4,4,4,4)"/>
			<v:textRect cx="18" cy="277.2" width="36" height="36"/>
			<g id="shadow46-142" v:groupContext="shadow" v:shadowOffsetX="1.44" v:shadowOffsetY="-1.44" v:shadowType="1"
					transform="matrix(1,0,0,1,1.44,1.44)" class="st1">
				<path d="M0 277.2 A18 18 0 0 1 36 277.2 A18 18 0 1 1 0 277.2 Z" class="st2"/>
			</g>
			<path d="M0 277.2 A18 18 0 0 1 36 277.2 A18 18 0 1 1 0 277.2 Z" class="st4"/>
			<text x="5.49" y="281.4" class="st5" v:langID="1033"><v:paragraph v:horizAlign="1"/><v:tabList/>3.14</text>		</g>
		<g id="shape56-147" v:mID="56" v:groupContext="shape" transform="translate(888.48,-63)">
			<title>Box</title>
			<desc>DEC_TO_INT</desc>
			<v:userDefs>
				<v:ud v:nameU="visVersion" v:val="VT0(12):26"/>
				<v:ud v:nameU="msvThemeColors" v:val="VT0(36):26"/>
				<v:ud v:nameU="msvThemeEffects" v:val="VT0(16):26"/>
			</v:userDefs>
			<v:textBlock v:margins="rect(4,4,4,4)"/>
			<v:textRect cx="48.6" cy="277.2" width="97.2" height="36"/>
			<g id="shadow56-148" v:groupContext="shadow" v:shadowOffsetX="1.44" v:shadowOffsetY="-1.44" v:shadowType="1"
					transform="matrix(1,0,0,1,1.44,1.44)" class="st1">
				<rect x="0" y="259.2" width="97.2" height="36" class="st2"/>
			</g>
			<rect x="0" y="259.2" width="97.2" height="36" class="st8"/>
			<text x="22.77" y="280.2" class="st9" v:langID="1033"><v:paragraph v:horizAlign="1"/><v:tabList/>DEC_TO_INT</text>		</g>
		<g id="shape57-154" v:mID="57" v:groupContext="shape" transform="translate(888.48,-235.8)">
			<title>Box.12</title>
			<desc>LOAD_DEC value=3.14</desc>
			<v:userDefs>
				<v:ud v:nameU="visVersion" v:val="VT0(12):26"/>
				<v:ud v:nameU="msvThemeColors" v:val="VT0(36):26"/>
				<v:ud v:nameU="msvThemeEffects" v:val="VT0(16):26"/>
			</v:userDefs>
			<v:textBlock v:margins="rect(4,4,4,4)"/>
			<v:textRect cx="48.6" cy="277.2" width="97.2" height="36"/>
			<g id="shadow57-155" v:groupContext="shadow" v:shadowOffsetX="1.44" v:shadowOffsetY="-1.44" v:shadowType="1"
					transform="matrix(1,0,0,1,1.44,1.44)" class="st1">
				<rect x="0" y="259.2" width="97.2" height="36" class="st2"/>
			</g>
			<rect x="0" y="259.2" width="97.2" height="36" class="st8"/>
			<text x="26.54" y="274.2" class="st9" v:langID="1033"><v:paragraph v:horizAlign="1"/><v:tabList/>LOAD_DEC<v:newlineChar/><tspan
						x="26.33" dy="1.2em" class="st10">value=3.14</tspan></text>		</g>
		<g id="shape58-161" v:mID="58" v:groupContext="shape" transform="translate(888.48,-192.6)">
			<title>Box.13</title>
			<desc>LOAD_INT value=2</desc>
			<v:userDefs>
				<v:ud v:nameU="visVersion" v:val="VT0(12):26"/>
				<v:ud v:nameU="msvThemeColors" v:val="VT0(36):26"/>
				<v:ud v:nameU="msvThemeEffects" v:val="VT0(16):26"/>
			</v:userDefs>
			<v:textBlock v:margins="rect(4,4,4,4)"/>
			<v:textRect cx="48.6" cy="277.2" width="97.2" height="36"/>
			<g id="shadow58-162" v:groupContext="shadow" v:shadowOffsetX="1.44" v:shadowOffsetY="-1.44" v:shadowType="1"
					transform="matrix(1,0,0,1,1.44,1.44)" class="st1">
				<rect x="0" y="259.2" width="97.2" height="36" class="st2"/>
			</g>
			<rect x="0" y="259.2" width="97.2" height="36" class="st8"/>
			<text x="27.8" y="274.2" class="st9" v:langID="1033"><v:paragraph v:horizAlign="1"/><v:tabList/>LOAD_INT<v:newlineChar/><tspan
						x="32.66" dy="1.2em" class="st10">value=2</tspan></text>		</g>
		<g id="shape59-168" v:mID="59" v:groupContext="shape" transform="translate(888.48,-149.4)">
			<title>Box.14</title>
			<desc>INT_TO_DEC</desc>
			<v:userDefs>
				<v:ud v:nameU="visVersion" v:val="VT0(12):26"/>
				<v:ud v:nameU="msvThemeColors" v:val="VT0(36):26"/>
				<v:ud v:nameU="msvThemeEffects" v:val="VT0(16):26"/>
			</v:userDefs>
			<v:textBlock v:margins="rect(4,4,4,4)"/>
			<v:textRect cx="48.6" cy="277.2" width="97.2" height="36"/>
			<g id="shadow59-169" v:groupContext="shadow" v:shadowOffsetX="1.44" v:shadowOffsetY="-1.44" v:shadowType="1"
					transform="matrix(1,0,0,1,1.44,1.44)" class="st1">
				<rect x="0" y="259.2" width="97.2" height="36" class="st2"/>
			</g>
			<rect x="0" y="259.2" width="97.2" height="36" class="st8"/>
			<text x="22.77" y="280.2" class="st9" v:langID="1033"><v:paragraph v:horizAlign="1"/><v:tabList/>INT_TO_DEC</text>		</g>
		<g id="shape60-174" v:mID="60" v:groupContext="shape" transform="translate(888.48,-106.2)">
			<title>Box.15</title>
			<desc>ADD_DEC</desc>
			<v:userDefs>
				<v:ud v:nameU="visVersion" v:val="VT0(12):26"/>
				<v:ud v:nameU="msvThemeColors" v:val="VT0(36):26"/>
				<v:ud v:nameU="msvThemeEffects" v:val="VT0(16):26"/>
			</v:userDefs>
			<v:textBlock v:margins="rect(4,4,4,4)"/>
			<v:textRect cx="48.6" cy="277.2" width="97.2" height="36"/>
			<g id="shadow60-175" v:groupContext="shadow" v:shadowOffsetX="1.44" v:shadowOffsetY="-1.44" v:shadowType="1"
					transform="matrix(1,0,0,1,1.44,1.44)" class="st1">
				<rect x="0" y="259.2" width="97.2" height="36" class="st2"/>
			</g>
			<rect x="0" y="259.2" width="97.2" height="36" class="st8"/>
			<text x="28.88" y="280.2" class="st9" v:langID="1033"><v:paragraph v:horizAlign="1"/><v:tabList/>ADD_DEC</text>		</g>
		<g id="shape61-180" v:mID="61" v:groupContext="shape" transform="translate(888.48,-19.8)">
			<title>Box.16</title>
			<desc>STOR_INT index=0</desc>
			<v:userDefs>
				<v:ud v:nameU="visVersion" v:val="VT0(12):26"/>
				<v:ud v:nameU="msvThemeColors" v:val="VT0(36):26"/>
				<v:ud v:nameU="msvThemeEffects" v:val="VT0(16):26"/>
			</v:userDefs>
			<v:textBlock v:margins="rect(4,4,4,4)"/>
			<v:textRect cx="48.6" cy="277.2" width="97.2" height="36"/>
			<g id="shadow61-181" v:groupContext="shadow" v:shadowOffsetX="1.44" v:shadowOffsetY="-1.44" v:shadowType="1"
					transform="matrix(1,0,0,1,1.44,1.44)" class="st1">
				<rect x="0" y="259.2" width="97.2" height="36" class="st2"/>
			</g>
			<rect x="0" y="259.2" width="97.2" height="36" class="st8"/>
			<text x="28.43" y="274.2" class="st9" v:langID="1033"><v:paragraph v:horizAlign="1"/><v:tabList/>STOR_INT<v:newlineChar/><tspan
						x="32.52" dy="1.2em" class="st10">index=0</tspan></text>		</g>
		<g id="shape87-187" v:mID="87" v:groupContext="shape" transform="translate(555.4,-126)">
			<title>Sheet.87</title>
			<desc>Integer variable</desc>
			<v:userDefs>
				<v:ud v:nameU="msvThemeColors" v:val="VT0(36):26"/>
				<v:ud v:nameU="msvThemeEffects" v:val="VT0(16):26"/>
			</v:userDefs>
			<v:textBlock v:margins="rect(4,4,4,4)"/>
			<v:textRect cx="38.6" cy="279" width="77.21" height="32.4"/>
			<rect x="0" y="262.8" width="77.2" height="32.4" class="st11"/>
			<text x="23.97" y="274.8" class="st9" v:langID="1033"><v:paragraph v:horizAlign="1"/><v:tabList/>Integer <v:newlineChar/><tspan
						x="22.4" dy="1.38em" class="st10">variable</tspan></text>		</g>
		<g id="shape92-191" v:mID="92" v:groupContext="shape" transform="translate(620.2,-255.6)">
			<title>Sheet.92</title>
			<desc>Integer assignment (cast: decimal to Integer)</desc>
			<v:userDefs>
				<v:ud v:nameU="msvThemeColors" v:val="VT0(36):26"/>
				<v:ud v:nameU="msvThemeEffects" v:val="VT0(16):26"/>
			</v:userDefs>
			<v:textBlock v:margins="rect(4,4,4,4)"/>
			<v:textRect cx="61.2" cy="279" width="122.4" height="32.4"/>
			<rect x="0" y="262.8" width="122.4" height="32.4" class="st11"/>
			<text x="22.22" y="274.8" class="st9" v:langID="1033"><v:paragraph v:horizAlign="1"/><v:tabList/>Integer assignment<v:newlineChar/><v:paragraph
						v:horizAlign="1"/><tspan x="10.44" dy="1.38em" class="st10">(cast: decimal to Integer)</tspan></text>		</g>
		<g id="shape96-195" v:mID="96" v:groupContext="shape" transform="translate(729.2,-126)">
			<title>Sheet.96</title>
			<desc>Decimal addition</desc>
			<v:userDefs>
				<v:ud v:nameU="msvThemeColors" v:val="VT0(36):26"/>
				<v:ud v:nameU="msvThemeEffects" v:val="VT0(16):26"/>
			</v:userDefs>
			<v:textBlock v:margins="rect(4,4,4,4)"/>
			<v:textRect cx="38.6" cy="279" width="77.21" height="32.4"/>
			<rect x="0" y="262.8" width="77.2" height="32.4" class="st11"/>
			<text x="22.24" y="274.8" class="st9" v:langID="1033"><v:paragraph v:horizAlign="1"/><v:tabList/>Decimal <v:newlineChar/><tspan
						x="21.72" dy="1.38em" class="st10">addition</tspan></text>		</g>
		<g id="shape103-199" v:mID="103" v:groupContext="shape" transform="translate(544.6,-38.7)">
			<title>Sheet.103</title>
			<desc>Integer number (cast: integer to decimal)</desc>
			<v:userDefs>
				<v:ud v:nameU="msvThemeColors" v:val="VT0(36):26"/>
				<v:ud v:nameU="msvThemeEffects" v:val="VT0(16):26"/>
			</v:userDefs>
			<v:textBlock v:margins="rect(4,4,4,4)"/>
			<v:textRect cx="61.2" cy="279" width="122.4" height="32.4"/>
			<rect x="0" y="262.8" width="122.4" height="32.4" class="st11"/>
			<text x="29.33" y="274.8" class="st9" v:langID="1033"><v:paragraph v:horizAlign="1"/><v:tabList/>Integer number<v:newlineChar/><v:paragraph
						v:horizAlign="1"/><tspan x="10.55" dy="1.38em" class="st10">(cast: integer to decimal)</tspan></text>		</g>
		<g id="shape108-203" v:mID="108" v:groupContext="shape" transform="translate(772.4,-38.7)">
			<title>Sheet.108</title>
			<desc>Decimal number</desc>
			<v:userDefs>
				<v:ud v:nameU="msvThemeColors" v:val="VT0(36):26"/>
				<v:ud v:nameU="msvThemeEffects" v:val="VT0(16):26"/>
			</v:userDefs>
			<v:textBlock v:margins="rect(4,4,4,4)"/>
			<v:textRect cx="38.6" cy="279" width="77.21" height="32.4"/>
			<rect x="0" y="262.8" width="77.2" height="32.4" class="st11"/>
			<text x="22.24" y="274.8" class="st9" v:langID="1033"><v:paragraph v:horizAlign="1"/><v:tabList/>Decimal <v:newlineChar/><tspan
						x="22.49" dy="1.38em" class="st10">number</tspan></text>		</g>
		<g id="shape117-207" v:mID="117" v:groupContext="shape" transform="translate(277.64,-122.4)">
			<title>Forward</title>
			<v:userDefs>
				<v:ud v:nameU="msvShapeCategories" v:prompt="" v:val="VT4(Icon)"/>
				<v:ud v:nameU="visVersion" v:prompt="" v:val="VT0(15):26"/>
				<v:ud v:nameU="msvThemeColors" v:val="VT0(36):26"/>
			</v:userDefs>
			<path d="M0 262.8 L0 284.4 L21.6 284.4 L21.6 295.2 L47.52 273.64 L21.6 252 L21.6 262.8 L0 262.8 Z" class="st12"/>
		</g>
		<g id="shape118-209" v:mID="118" v:groupContext="shape" transform="translate(501.84,-122.4)">
			<title>Forward.118</title>
			<v:userDefs>
				<v:ud v:nameU="msvShapeCategories" v:prompt="" v:val="VT4(Icon)"/>
				<v:ud v:nameU="visVersion" v:prompt="" v:val="VT0(15):26"/>
				<v:ud v:nameU="msvThemeColors" v:val="VT0(36):26"/>
			</v:userDefs>
			<path d="M0 262.8 L0 284.4 L21.6 284.4 L21.6 295.2 L47.52 273.64 L21.6 252 L21.6 262.8 L0 262.8 Z" class="st12"/>
		</g>
		<g id="shape119-211" v:mID="119" v:groupContext="shape" transform="translate(806.4,-122.4)">
			<title>Forward.119</title>
			<v:userDefs>
				<v:ud v:nameU="msvShapeCategories" v:prompt="" v:val="VT4(Icon)"/>
				<v:ud v:nameU="visVersion" v:prompt="" v:val="VT0(15):26"/>
				<v:ud v:nameU="msvThemeColors" v:val="VT0(36):26"/>
			</v:userDefs>
			<path d="M0 262.8 L0 284.4 L21.6 284.4 L21.6 295.2 L47.52 273.64 L21.6 252 L21.6 262.8 L0 262.8 Z" class="st12"/>
		</g>
	</g>
</svg>
