<?xml version="1.0" encoding="UTF-8" standalone="no"?>
<!DOCTYPE svg PUBLIC "-//W3C//DTD SVG 1.1//EN" "http://www.w3.org/Graphics/SVG/1.1/DTD/svg11.dtd">
<!-- Generated by Microsoft Visio, SVG Export compiling2.svg Page-6 -->
<svg xmlns="http://www.w3.org/2000/svg" xmlns:xlink="http://www.w3.org/1999/xlink" xmlns:ev="http://www.w3.org/2001/xml-events"
		xmlns:v="http://schemas.microsoft.com/visio/2003/SVGExtensions/" width="15.5in" height="4.2in" viewBox="0 0 1116 302.4"
		xml:space="preserve" color-interpolation-filters="sRGB" class="st14">
	<v:documentProperties v:langID="1033">
		<v:userDefs>
			<v:ud v:nameU="DocShowPicture" v:prompt="" v:val="VT0(1):26"/>
			<v:ud v:nameU="msvConvertTheme"/>
		</v:userDefs>
	</v:documentProperties>
	<v:reviewers>
		<v:reviewer v:name="Randy Hollines" v:initials="RH" color="#ff0000" v:reviewerId="1" v:currentIndex="2"/>
	</v:reviewers>

	<style type="text/css">
	<![CDATA[
		.st1 {visibility:visible}
		.st2 {fill:#cdcdcd;fill-opacity:0.5;stroke:#cdcdcd;stroke-linecap:round;stroke-linejoin:round;stroke-opacity:0.5}
		.st3 {fill:url(#grad0-6);stroke:#404040;stroke-linecap:round;stroke-linejoin:round;stroke-width:0.25}
		.st4 {fill:url(#grad0-17);stroke:#404040;stroke-linecap:round;stroke-linejoin:round;stroke-width:0.25}
		.st5 {fill:#000000;font-family:Calibri;font-size:1.16666em;font-weight:bold}
		.st6 {stroke:#cdcdcd;stroke-linecap:round;stroke-linejoin:round;stroke-opacity:0.5;stroke-width:0.25}
		.st7 {stroke:#404040;stroke-linecap:round;stroke-linejoin:round;stroke-width:0.25}
		.st8 {fill:#000000;font-family:Calibri;font-size:0.833336em}
		.st9 {font-size:1em}
		.st10 {fill:url(#grad0-187);stroke:#404040;stroke-linecap:round;stroke-linejoin:round;stroke-width:0.25}
		.st11 {fill:#cdcdcd;fill-opacity:0.5}
		.st12 {fill:url(#grad0-229)}
		.st13 {fill:url(#grad0-229);stroke:#646464;stroke-linecap:round;stroke-linejoin:round;stroke-width:0.25}
		.st14 {fill:none;fill-rule:evenodd;font-size:12px;overflow:visible;stroke-linecap:square;stroke-miterlimit:3}
	]]>
	</style>

	<defs id="Patterns_And_Gradients">
		<linearGradient id="grad0-6" x1="0" y1="0" x2="1" y2="0" gradientTransform="rotate(270 0.5 0.5)">
			<stop offset="0" stop-color="#f0f0f0" stop-opacity="1"/>
			<stop offset="1" stop-color="#ffffff" stop-opacity="1"/>
		</linearGradient>
		<linearGradient id="grad0-17" x1="0" y1="0" x2="1" y2="0" gradientTransform="rotate(270 0.5 0.5)">
			<stop offset="0" stop-color="#cacaca" stop-opacity="1"/>
			<stop offset="1" stop-color="#d9d9d9" stop-opacity="1"/>
		</linearGradient>
		<linearGradient id="grad0-187" x1="0" y1="0" x2="1" y2="0" gradientTransform="rotate(270 0.5 0.5)">
			<stop offset="0" stop-color="#b0b0b0" stop-opacity="1"/>
			<stop offset="1" stop-color="#bfbfbf" stop-opacity="1"/>
		</linearGradient>
		<linearGradient id="grad0-229" x1="0" y1="0" x2="1" y2="0" gradientTransform="rotate(270 0.5 0.5)">
			<stop offset="0" stop-color="#646464" stop-opacity="1"/>
			<stop offset="1" stop-color="#737373" stop-opacity="1"/>
		</linearGradient>
	</defs>
	<g v:mID="8" v:index="6" v:groupContext="foregroundPage">
		<v:custProps>
			<v:cp v:nameU="ShapeClass" v:lbl="Shape Class" v:type="1" v:invis="true" v:langID="1033"
					v:val="VT4({52BC4E31-A33B-11d1-B2B9-006008BD347E})"/>
		</v:custProps>
		<v:userDefs>
			<v:ud v:nameU="msvThemeColors" v:val="VT0(36):26"/>
			<v:ud v:nameU="msvThemeEffects" v:val="VT0(16):26"/>
			<v:ud v:nameU="msvThemeOrder" v:val="VT0(1):26"/>
		</v:userDefs>
		<title>Page-6</title>
		<v:pageProperties v:drawingScale="1" v:pageScale="1" v:drawingUnits="0" v:shadowOffsetX="9" v:shadowOffsetY="-9"/>
		<v:layer v:name="New Plants" v:index="0"/>
		<v:layer v:name="Plant" v:index="1"/>
		<v:layer v:name="Connector" v:index="2"/>
		<g id="shape84-1" v:mID="84" v:groupContext="shape" transform="translate(972,-10.8)">
			<title>Rectangle.84</title>
			<v:userDefs>
				<v:ud v:nameU="visVersion" v:val="VT0(15):26"/>
				<v:ud v:nameU="msvThemeColors" v:val="VT0(36):26"/>
				<v:ud v:nameU="msvThemeEffects" v:val="VT0(16):26"/>
			</v:userDefs>
			<g id="shadow84-2" v:groupContext="shadow" v:shadowOffsetX="1.44" v:shadowOffsetY="-1.44" v:shadowType="1"
					transform="matrix(1,0,0,1,1.44,1.44)" class="st1">
				<rect x="0" y="25.2" width="126" height="277.2" class="st2"/>
			</g>
			<rect x="0" y="25.2" width="126" height="277.2" class="st3"/>
		</g>
		<g id="shape83-7" v:mID="83" v:groupContext="shape" transform="translate(12.4,-126.4)">
			<title>Rectangle.61</title>
			<v:userDefs>
				<v:ud v:nameU="visVersion" v:val="VT0(15):26"/>
				<v:ud v:nameU="msvThemeColors" v:val="VT0(36):26"/>
				<v:ud v:nameU="msvThemeEffects" v:val="VT0(16):26"/>
			</v:userDefs>
			<g id="shadow83-8" v:groupContext="shadow" v:shadowOffsetX="1.44" v:shadowOffsetY="-1.44" v:shadowType="1"
					transform="matrix(1,0,0,1,1.44,1.44)" class="st1">
				<rect x="0" y="244.8" width="248.4" height="57.6" class="st2"/>
			</g>
			<rect x="0" y="244.8" width="248.4" height="57.6" class="st3"/>
		</g>
		<g id="shape1-12" v:mID="1" v:groupContext="shape" transform="translate(385.2,-47.7)">
			<title>Circle</title>
			<desc>2</desc>
			<v:userDefs>
				<v:ud v:nameU="visVersion" v:val="VT0(12):26"/>
				<v:ud v:nameU="msvThemeColors" v:val="VT0(36):26"/>
				<v:ud v:nameU="msvThemeEffects" v:val="VT0(16):26"/>
			</v:userDefs>
			<v:textBlock v:margins="rect(4,4,4,4)"/>
			<v:textRect cx="18" cy="284.4" width="36" height="36"/>
			<g id="shadow1-13" v:groupContext="shadow" v:shadowOffsetX="1.44" v:shadowOffsetY="-1.44" v:shadowType="1"
					transform="matrix(1,0,0,1,1.44,1.44)" class="st1">
				<path d="M0 284.4 A18 18 0 0 1 36 284.4 A18 18 0 1 1 0 284.4 Z" class="st2"/>
			</g>
			<path d="M0 284.4 A18 18 0 0 1 36 284.4 A18 18 0 1 1 0 284.4 Z" class="st4"/>
			<text x="14.45" y="288.6" class="st5" v:langID="1033"><v:paragraph v:horizAlign="1"/><v:tabList/>2</text>		</g>
		<g id="shape2-19" v:mID="2" v:groupContext="shape" transform="translate(471.6,-45.9)">
			<title>Circle.2</title>
			<desc>3.14</desc>
			<v:userDefs>
				<v:ud v:nameU="visVersion" v:val="VT0(12):26"/>
				<v:ud v:nameU="msvThemeColors" v:val="VT0(36):26"/>
				<v:ud v:nameU="msvThemeEffects" v:val="VT0(16):26"/>
			</v:userDefs>
			<v:textBlock v:margins="rect(4,4,4,4)"/>
			<v:textRect cx="18" cy="284.4" width="36" height="36"/>
			<g id="shadow2-20" v:groupContext="shadow" v:shadowOffsetX="1.44" v:shadowOffsetY="-1.44" v:shadowType="1"
					transform="matrix(1,0,0,1,1.44,1.44)" class="st1">
				<path d="M0 284.4 A18 18 0 0 1 36 284.4 A18 18 0 1 1 0 284.4 Z" class="st2"/>
			</g>
			<path d="M0 284.4 A18 18 0 0 1 36 284.4 A18 18 0 1 1 0 284.4 Z" class="st4"/>
			<text x="5.49" y="288.6" class="st5" v:langID="1033"><v:paragraph v:horizAlign="1"/><v:tabList/>3.14</text>		</g>
		<g id="shape3-25" v:mID="3" v:groupContext="shape" transform="translate(748.8,169.2) rotate(90)">
			<title>Double tree sloped.28</title>
			<v:userDefs>
				<v:ud v:nameU="Scale" v:val="VT0(1):26"/>
				<v:ud v:nameU="AntiScale" v:val="VT0(1):26"/>
				<v:ud v:nameU="visVersion" v:val="VT0(12):26"/>
				<v:ud v:nameU="msvThemeColors" v:val="VT0(36):26"/>
				<v:ud v:nameU="msvThemeEffects" v:val="VT0(16):26"/>
			</v:userDefs>
			<g id="shadow3-26" v:groupContext="shadow" v:shadowOffsetX="1.44" v:shadowOffsetY="-1.44" v:shadowType="1"
					transform="matrix(1,0,0,1,1.44,-1.44)" class="st1">
				<path d="M0 302.4 L27.9 302.4" class="st6"/>
				<path d="M27.9 302.4 L38.7 259.2 L51.3 259.2" class="st6"/>
				<path d="M27.9 302.4 L38.7 345.6 L49.5 345.6" class="st6"/>
			</g>
			<path d="M0 302.4 L27.9 302.4" class="st7"/>
			<path d="M27.9 302.4 L38.7 259.2 L51.3 259.2" class="st7"/>
			<path d="M27.9 302.4 L38.7 345.6 L49.5 345.6" class="st7"/>
		</g>
		<g id="shape4-36" v:mID="4" v:groupContext="shape" transform="translate(428.4,-133.2)">
			<title>Circle.4</title>
			<desc>‘+’</desc>
			<v:userDefs>
				<v:ud v:nameU="visVersion" v:val="VT0(12):26"/>
				<v:ud v:nameU="msvThemeColors" v:val="VT0(36):26"/>
				<v:ud v:nameU="msvThemeEffects" v:val="VT0(16):26"/>
			</v:userDefs>
			<v:textBlock v:margins="rect(4,4,4,4)"/>
			<v:textRect cx="18" cy="284.4" width="36" height="36"/>
			<g id="shadow4-37" v:groupContext="shadow" v:shadowOffsetX="1.44" v:shadowOffsetY="-1.44" v:shadowType="1"
					transform="matrix(1,0,0,1,1.44,1.44)" class="st1">
				<path d="M0 284.4 A18 18 0 0 1 36 284.4 A18 18 0 1 1 0 284.4 Z" class="st2"/>
			</g>
			<path d="M0 284.4 A18 18 0 0 1 36 284.4 A18 18 0 1 1 0 284.4 Z" class="st4"/>
			<text x="10.9" y="288.6" class="st5" v:langID="1033"><v:paragraph v:horizAlign="1"/><v:tabList/>‘+’</text>		</g>
		<g id="shape5-42" v:mID="5" v:groupContext="shape" transform="translate(705.6,79.2) rotate(90)">
			<title>Double tree sloped.5</title>
			<v:userDefs>
				<v:ud v:nameU="Scale" v:val="VT0(1):26"/>
				<v:ud v:nameU="AntiScale" v:val="VT0(1):26"/>
				<v:ud v:nameU="visVersion" v:val="VT0(12):26"/>
				<v:ud v:nameU="msvThemeColors" v:val="VT0(36):26"/>
				<v:ud v:nameU="msvThemeEffects" v:val="VT0(16):26"/>
			</v:userDefs>
			<g id="shadow5-43" v:groupContext="shadow" v:shadowOffsetX="1.44" v:shadowOffsetY="-1.44" v:shadowType="1"
					transform="matrix(1,0,0,1,1.44,-1.44)" class="st1">
				<path d="M0 302.4 L27.9 302.4" class="st6"/>
				<path d="M27.9 302.4 L38.7 259.2 L54 259.2" class="st6"/>
				<path d="M27.9 302.4 L38.7 345.6 L54 345.6" class="st6"/>
			</g>
			<path d="M0 302.4 L27.9 302.4" class="st7"/>
			<path d="M27.9 302.4 L38.7 259.2 L54 259.2" class="st7"/>
			<path d="M27.9 302.4 L38.7 345.6 L54 345.6" class="st7"/>
		</g>
		<g id="shape6-53" v:mID="6" v:groupContext="shape" transform="translate(342,-133.2)">
			<title>Circle.6</title>
			<desc>‘a’</desc>
			<v:userDefs>
				<v:ud v:nameU="visVersion" v:val="VT0(12):26"/>
				<v:ud v:nameU="msvThemeColors" v:val="VT0(36):26"/>
				<v:ud v:nameU="msvThemeEffects" v:val="VT0(16):26"/>
			</v:userDefs>
			<v:textBlock v:margins="rect(4,4,4,4)"/>
			<v:textRect cx="18" cy="284.4" width="36" height="36"/>
			<g id="shadow6-54" v:groupContext="shadow" v:shadowOffsetX="1.44" v:shadowOffsetY="-1.44" v:shadowType="1"
					transform="matrix(1,0,0,1,1.44,1.44)" class="st1">
				<path d="M0 284.4 A18 18 0 0 1 36 284.4 A18 18 0 1 1 0 284.4 Z" class="st2"/>
			</g>
			<path d="M0 284.4 A18 18 0 0 1 36 284.4 A18 18 0 1 1 0 284.4 Z" class="st4"/>
			<text x="10.94" y="288.6" class="st5" v:langID="1033"><v:paragraph v:horizAlign="1"/><v:tabList/>‘a’</text>		</g>
		<g id="shape7-59" v:mID="7" v:groupContext="shape" transform="translate(385.2,-223.2)">
			<title>Circle.7</title>
			<desc>‘:=’</desc>
			<v:userDefs>
				<v:ud v:nameU="visVersion" v:val="VT0(12):26"/>
				<v:ud v:nameU="msvThemeColors" v:val="VT0(36):26"/>
				<v:ud v:nameU="msvThemeEffects" v:val="VT0(16):26"/>
			</v:userDefs>
			<v:textBlock v:margins="rect(4,4,4,4)"/>
			<v:textRect cx="18" cy="284.4" width="36" height="36"/>
			<g id="shadow7-60" v:groupContext="shadow" v:shadowOffsetX="1.44" v:shadowOffsetY="-1.44" v:shadowType="1"
					transform="matrix(1,0,0,1,1.44,1.44)" class="st1">
				<path d="M0 284.4 A18 18 0 0 1 36 284.4 A18 18 0 1 1 0 284.4 Z" class="st2"/>
			</g>
			<path d="M0 284.4 A18 18 0 0 1 36 284.4 A18 18 0 1 1 0 284.4 Z" class="st4"/>
			<text x="8.97" y="288.6" class="st5" v:langID="1033"><v:paragraph v:horizAlign="1"/><v:tabList/>‘:=’</text>		</g>
		<g id="shape8-65" v:mID="8" v:groupContext="shape" transform="translate(720,-47.7)">
			<title>Circle.8</title>
			<desc>2</desc>
			<v:userDefs>
				<v:ud v:nameU="visVersion" v:val="VT0(12):26"/>
				<v:ud v:nameU="msvThemeColors" v:val="VT0(36):26"/>
				<v:ud v:nameU="msvThemeEffects" v:val="VT0(16):26"/>
			</v:userDefs>
			<v:textBlock v:margins="rect(4,4,4,4)"/>
			<v:textRect cx="18" cy="284.4" width="36" height="36"/>
			<g id="shadow8-66" v:groupContext="shadow" v:shadowOffsetX="1.44" v:shadowOffsetY="-1.44" v:shadowType="1"
					transform="matrix(1,0,0,1,1.44,1.44)" class="st1">
				<path d="M0 284.4 A18 18 0 0 1 36 284.4 A18 18 0 1 1 0 284.4 Z" class="st2"/>
			</g>
			<path d="M0 284.4 A18 18 0 0 1 36 284.4 A18 18 0 1 1 0 284.4 Z" class="st4"/>
			<text x="14.45" y="288.6" class="st5" v:langID="1033"><v:paragraph v:horizAlign="1"/><v:tabList/>2</text>		</g>
		<g id="shape9-71" v:mID="9" v:groupContext="shape" transform="translate(806.4,-45.9)">
			<title>Circle.9</title>
			<desc>3.14</desc>
			<v:userDefs>
				<v:ud v:nameU="visVersion" v:val="VT0(12):26"/>
				<v:ud v:nameU="msvThemeColors" v:val="VT0(36):26"/>
				<v:ud v:nameU="msvThemeEffects" v:val="VT0(16):26"/>
			</v:userDefs>
			<v:textBlock v:margins="rect(4,4,4,4)"/>
			<v:textRect cx="18" cy="284.4" width="36" height="36"/>
			<g id="shadow9-72" v:groupContext="shadow" v:shadowOffsetX="1.44" v:shadowOffsetY="-1.44" v:shadowType="1"
					transform="matrix(1,0,0,1,1.44,1.44)" class="st1">
				<path d="M0 284.4 A18 18 0 0 1 36 284.4 A18 18 0 1 1 0 284.4 Z" class="st2"/>
			</g>
			<path d="M0 284.4 A18 18 0 0 1 36 284.4 A18 18 0 1 1 0 284.4 Z" class="st4"/>
			<text x="5.49" y="288.6" class="st5" v:langID="1033"><v:paragraph v:horizAlign="1"/><v:tabList/>3.14</text>		</g>
		<g id="shape10-77" v:mID="10" v:groupContext="shape" transform="translate(1083.6,169.2) rotate(90)">
			<title>Double tree sloped.10</title>
			<v:userDefs>
				<v:ud v:nameU="Scale" v:val="VT0(1):26"/>
				<v:ud v:nameU="AntiScale" v:val="VT0(1):26"/>
				<v:ud v:nameU="visVersion" v:val="VT0(12):26"/>
				<v:ud v:nameU="msvThemeColors" v:val="VT0(36):26"/>
				<v:ud v:nameU="msvThemeEffects" v:val="VT0(16):26"/>
			</v:userDefs>
			<g id="shadow10-78" v:groupContext="shadow" v:shadowOffsetX="1.44" v:shadowOffsetY="-1.44" v:shadowType="1"
					transform="matrix(1,0,0,1,1.44,-1.44)" class="st1">
				<path d="M0 302.4 L27.9 302.4" class="st6"/>
				<path d="M27.9 302.4 L38.7 259.2 L51.3 259.2" class="st6"/>
				<path d="M27.9 302.4 L38.7 345.6 L49.5 345.6" class="st6"/>
			</g>
			<path d="M0 302.4 L27.9 302.4" class="st7"/>
			<path d="M27.9 302.4 L38.7 259.2 L51.3 259.2" class="st7"/>
			<path d="M27.9 302.4 L38.7 345.6 L49.5 345.6" class="st7"/>
		</g>
		<g id="shape11-88" v:mID="11" v:groupContext="shape" transform="translate(763.2,-133.2)">
			<title>Circle.11</title>
			<desc>‘+’</desc>
			<v:userDefs>
				<v:ud v:nameU="visVersion" v:val="VT0(12):26"/>
				<v:ud v:nameU="msvThemeColors" v:val="VT0(36):26"/>
				<v:ud v:nameU="msvThemeEffects" v:val="VT0(16):26"/>
			</v:userDefs>
			<v:textBlock v:margins="rect(4,4,4,4)"/>
			<v:textRect cx="18" cy="284.4" width="36" height="36"/>
			<g id="shadow11-89" v:groupContext="shadow" v:shadowOffsetX="1.44" v:shadowOffsetY="-1.44" v:shadowType="1"
					transform="matrix(1,0,0,1,1.44,1.44)" class="st1">
				<path d="M0 284.4 A18 18 0 0 1 36 284.4 A18 18 0 1 1 0 284.4 Z" class="st2"/>
			</g>
			<path d="M0 284.4 A18 18 0 0 1 36 284.4 A18 18 0 1 1 0 284.4 Z" class="st4"/>
			<text x="10.9" y="288.6" class="st5" v:langID="1033"><v:paragraph v:horizAlign="1"/><v:tabList/>‘+’</text>		</g>
		<g id="shape12-94" v:mID="12" v:groupContext="shape" transform="translate(1040.4,79.2) rotate(90)">
			<title>Double tree sloped.12</title>
			<v:userDefs>
				<v:ud v:nameU="Scale" v:val="VT0(1):26"/>
				<v:ud v:nameU="AntiScale" v:val="VT0(1):26"/>
				<v:ud v:nameU="visVersion" v:val="VT0(12):26"/>
				<v:ud v:nameU="msvThemeColors" v:val="VT0(36):26"/>
				<v:ud v:nameU="msvThemeEffects" v:val="VT0(16):26"/>
			</v:userDefs>
			<g id="shadow12-95" v:groupContext="shadow" v:shadowOffsetX="1.44" v:shadowOffsetY="-1.44" v:shadowType="1"
					transform="matrix(1,0,0,1,1.44,-1.44)" class="st1">
				<path d="M0 302.4 L27.9 302.4" class="st6"/>
				<path d="M27.9 302.4 L38.7 259.2 L54 259.2" class="st6"/>
				<path d="M27.9 302.4 L38.7 345.6 L54 345.6" class="st6"/>
			</g>
			<path d="M0 302.4 L27.9 302.4" class="st7"/>
			<path d="M27.9 302.4 L38.7 259.2 L54 259.2" class="st7"/>
			<path d="M27.9 302.4 L38.7 345.6 L54 345.6" class="st7"/>
		</g>
		<g id="shape13-105" v:mID="13" v:groupContext="shape" transform="translate(676.8,-133.2)">
			<title>Circle.13</title>
			<desc>‘a’</desc>
			<v:userDefs>
				<v:ud v:nameU="visVersion" v:val="VT0(12):26"/>
				<v:ud v:nameU="msvThemeColors" v:val="VT0(36):26"/>
				<v:ud v:nameU="msvThemeEffects" v:val="VT0(16):26"/>
			</v:userDefs>
			<v:textBlock v:margins="rect(4,4,4,4)"/>
			<v:textRect cx="18" cy="284.4" width="36" height="36"/>
			<g id="shadow13-106" v:groupContext="shadow" v:shadowOffsetX="1.44" v:shadowOffsetY="-1.44" v:shadowType="1"
					transform="matrix(1,0,0,1,1.44,1.44)" class="st1">
				<path d="M0 284.4 A18 18 0 0 1 36 284.4 A18 18 0 1 1 0 284.4 Z" class="st2"/>
			</g>
			<path d="M0 284.4 A18 18 0 0 1 36 284.4 A18 18 0 1 1 0 284.4 Z" class="st4"/>
			<text x="10.94" y="288.6" class="st5" v:langID="1033"><v:paragraph v:horizAlign="1"/><v:tabList/>‘a’</text>		</g>
		<g id="shape14-111" v:mID="14" v:groupContext="shape" transform="translate(720,-223.2)">
			<title>Circle.14</title>
			<desc>‘:=’</desc>
			<v:userDefs>
				<v:ud v:nameU="visVersion" v:val="VT0(12):26"/>
				<v:ud v:nameU="msvThemeColors" v:val="VT0(36):26"/>
				<v:ud v:nameU="msvThemeEffects" v:val="VT0(16):26"/>
			</v:userDefs>
			<v:textBlock v:margins="rect(4,4,4,4)"/>
			<v:textRect cx="18" cy="284.4" width="36" height="36"/>
			<g id="shadow14-112" v:groupContext="shadow" v:shadowOffsetX="1.44" v:shadowOffsetY="-1.44" v:shadowType="1"
					transform="matrix(1,0,0,1,1.44,1.44)" class="st1">
				<path d="M0 284.4 A18 18 0 0 1 36 284.4 A18 18 0 1 1 0 284.4 Z" class="st2"/>
			</g>
			<path d="M0 284.4 A18 18 0 0 1 36 284.4 A18 18 0 1 1 0 284.4 Z" class="st4"/>
			<text x="8.97" y="288.6" class="st5" v:langID="1033"><v:paragraph v:horizAlign="1"/><v:tabList/>‘:=’</text>		</g>
		<g id="shape15-117" v:mID="15" v:groupContext="shape" transform="translate(861.3,-39.6)">
			<title>2-D word balloon</title>
			<desc>Decimal number</desc>
			<v:userDefs>
				<v:ud v:nameU="Scale" v:val="VT0(1):26"/>
				<v:ud v:nameU="AntiScale" v:val="VT0(1):26"/>
				<v:ud v:nameU="visVersion" v:val="VT0(12):26"/>
				<v:ud v:nameU="msvThemeColors" v:val="VT0(36):26"/>
				<v:ud v:nameU="msvThemeEffects" v:val="VT0(16):26"/>
			</v:userDefs>
			<v:textBlock v:margins="rect(4,4,4,4)"/>
			<v:textRect cx="24.3" cy="286.2" width="48.6" height="32.4"/>
			<g id="shadow15-118" v:groupContext="shadow" v:shadowOffsetX="1.44" v:shadowOffsetY="-1.44" v:shadowType="1"
					transform="matrix(1,0,0,1,1.44,1.44)" class="st1">
				<path d="M0 282.15 L0 270 L18.22 270 L24.3 270 L30.37 270 L48.6 270 L48.6 282.15 L48.6 286.2 L48.6 290.25 L48.6 302.4
							 L30.37 302.4 L24.3 302.4 L18.22 302.4 L0 302.4 L0 290.25 L-18.9 278.1 L0 282.15 Z" class="st2"/>
			</g>
			<path d="M0 282.15 L0 270 L18.22 270 L24.3 270 L30.37 270 L48.6 270 L48.6 282.15 L48.6 286.2 L48.6 290.25 L48.6 302.4
						 L30.37 302.4 L24.3 302.4 L18.22 302.4 L0 302.4 L0 290.25 L-18.9 278.1 L0 282.15 Z" class="st3"/>
			<text x="7.94" y="283.2" class="st8" v:langID="1033"><v:paragraph v:horizAlign="1"/><v:tabList/>Decimal <tspan x="8.19"
						dy="1.2em" class="st9">number</tspan></text>		</g>
		<g id="shape16-124" v:mID="16" v:groupContext="shape" transform="translate(576,-39.6)">
			<title>2-D word balloon.16</title>
			<desc>Integer number (cast: integer to decimal)</desc>
			<v:userDefs>
				<v:ud v:nameU="Scale" v:val="VT0(1):26"/>
				<v:ud v:nameU="AntiScale" v:val="VT0(1):26"/>
				<v:ud v:nameU="visVersion" v:val="VT0(12):26"/>
				<v:ud v:nameU="msvThemeColors" v:val="VT0(36):26"/>
				<v:ud v:nameU="msvThemeEffects" v:val="VT0(16):26"/>
			</v:userDefs>
			<v:textBlock v:margins="rect(4,4,4,4)"/>
			<v:textRect cx="61.2" cy="285.3" width="122.4" height="34.2"/>
			<g id="shadow16-125" v:groupContext="shadow" v:shadowOffsetX="1.44" v:shadowOffsetY="-1.44" v:shadowType="1"
					transform="matrix(1,0,0,1,1.44,1.44)" class="st1">
				<path d="M0 281.03 L0 268.2 L45.9 268.2 L61.2 268.2 L76.5 268.2 L122.4 268.2 L122.4 281.03 L144 276.3 L122.4 289.58
							 L122.4 302.4 L76.5 302.4 L61.2 302.4 L45.9 302.4 L0 302.4 L0 289.58 L0 285.3 L0 281.03 Z" class="st2"/>
			</g>
			<path d="M0 281.03 L0 268.2 L45.9 268.2 L61.2 268.2 L76.5 268.2 L122.4 268.2 L122.4 281.03 L144 276.3 L122.4 289.58 L122.4
						 302.4 L76.5 302.4 L61.2 302.4 L45.9 302.4 L0 302.4 L0 289.58 L0 285.3 L0 281.03 Z" class="st3"/>
			<text x="29.33" y="282.3" class="st8" v:langID="1033"><v:paragraph v:horizAlign="1"/><v:tabList/>Integer number<v:newlineChar/><tspan
						x="10.55" dy="1.2em" class="st9">(cast: integer to decimal)</tspan></text>		</g>
		<g id="shape17-131" v:mID="17" v:groupContext="shape" transform="translate(818.1,-158.4)">
			<title>2-D word balloon.17</title>
			<desc>Decimal addition</desc>
			<v:userDefs>
				<v:ud v:nameU="Scale" v:val="VT0(1):26"/>
				<v:ud v:nameU="AntiScale" v:val="VT0(1):26"/>
				<v:ud v:nameU="visVersion" v:val="VT0(12):26"/>
				<v:ud v:nameU="msvThemeColors" v:val="VT0(36):26"/>
				<v:ud v:nameU="msvThemeEffects" v:val="VT0(16):26"/>
			</v:userDefs>
			<v:textBlock v:margins="rect(4,4,4,4)"/>
			<v:textRect cx="24.3" cy="286.2" width="48.6" height="32.4"/>
			<g id="shadow17-132" v:groupContext="shadow" v:shadowOffsetX="1.44" v:shadowOffsetY="-1.44" v:shadowType="1"
					transform="matrix(1,0,0,1,1.44,1.44)" class="st1">
				<path d="M0 282.15 L0 270 L18.22 270 L24.3 270 L30.37 270 L48.6 270 L48.6 282.15 L48.6 286.2 L48.6 290.25 L48.6 302.4
							 L30.37 302.4 L24.3 302.4 L18.22 302.4 L0 302.4 L0 290.25 L-18.9 309.6 L0 282.15 Z" class="st2"/>
			</g>
			<path d="M0 282.15 L0 270 L18.22 270 L24.3 270 L30.37 270 L48.6 270 L48.6 282.15 L48.6 286.2 L48.6 290.25 L48.6 302.4
						 L30.37 302.4 L24.3 302.4 L18.22 302.4 L0 302.4 L0 290.25 L-18.9 309.6 L0 282.15 Z" class="st3"/>
			<text x="7.94" y="283.2" class="st8" v:langID="1033"><v:paragraph v:horizAlign="1"/><v:tabList/>Decimal <tspan x="7.42"
						dy="1.2em" class="st9">addition</tspan></text>		</g>
		<g id="shape18-138" v:mID="18" v:groupContext="shape" transform="translate(774.9,-237.6)">
			<title>2-D word balloon.18</title>
			<desc>Integer assignment (cast: decimal to Integer)</desc>
			<v:userDefs>
				<v:ud v:nameU="Scale" v:val="VT0(1):26"/>
				<v:ud v:nameU="AntiScale" v:val="VT0(1):26"/>
				<v:ud v:nameU="visVersion" v:val="VT0(12):26"/>
				<v:ud v:nameU="msvThemeColors" v:val="VT0(36):26"/>
				<v:ud v:nameU="msvThemeEffects" v:val="VT0(16):26"/>
			</v:userDefs>
			<v:textBlock v:margins="rect(4,4,4,4)"/>
			<v:textRect cx="62.55" cy="284.4" width="125.1" height="36"/>
			<g id="shadow18-139" v:groupContext="shadow" v:shadowOffsetX="1.44" v:shadowOffsetY="-1.44" v:shadowType="1"
					transform="matrix(1,0,0,1,1.44,1.44)" class="st1">
				<path d="M0 279.9 L0 266.4 L46.91 266.4 L62.55 266.4 L78.19 266.4 L125.1 266.4 L125.1 279.9 L125.1 284.4 L125.1 288.9
							 L125.1 302.4 L78.19 302.4 L62.55 302.4 L46.91 302.4 L0 302.4 L0 288.9 L-18.9 298.8 L0 279.9 Z"
						class="st2"/>
			</g>
			<path d="M0 279.9 L0 266.4 L46.91 266.4 L62.55 266.4 L78.19 266.4 L125.1 266.4 L125.1 279.9 L125.1 284.4 L125.1 288.9
						 L125.1 302.4 L78.19 302.4 L62.55 302.4 L46.91 302.4 L0 302.4 L0 288.9 L-18.9 298.8 L0 279.9 Z" class="st3"/>
			<text x="23.57" y="281.4" class="st8" v:langID="1033"><v:paragraph v:horizAlign="1"/><v:tabList/>Integer assignment<v:newlineChar/><tspan
						x="11.79" dy="1.2em" class="st9">(cast: decimal to Integer)</tspan></text>		</g>
		<g id="shape19-145" v:mID="19" v:groupContext="shape" transform="translate(599.4,-158.4)">
			<title>2-D word balloon.19</title>
			<desc>Integer variable</desc>
			<v:userDefs>
				<v:ud v:nameU="Scale" v:val="VT0(1):26"/>
				<v:ud v:nameU="AntiScale" v:val="VT0(1):26"/>
				<v:ud v:nameU="visVersion" v:val="VT0(12):26"/>
				<v:ud v:nameU="msvThemeColors" v:val="VT0(36):26"/>
				<v:ud v:nameU="msvThemeEffects" v:val="VT0(16):26"/>
			</v:userDefs>
			<v:textBlock v:margins="rect(4,4,4,4)"/>
			<v:textRect cx="24.3" cy="286.2" width="48.6" height="32.4"/>
			<g id="shadow19-146" v:groupContext="shadow" v:shadowOffsetX="1.44" v:shadowOffsetY="-1.44" v:shadowType="1"
					transform="matrix(1,0,0,1,1.44,1.44)" class="st1">
				<path d="M0 282.15 L0 270 L18.22 270 L24.3 270 L30.37 270 L48.6 270 L48.6 282.15 L77.4 309.6 L48.6 290.25 L48.6 302.4
							 L30.37 302.4 L24.3 302.4 L18.22 302.4 L0 302.4 L0 290.25 L0 286.2 L0 282.15 Z" class="st2"/>
			</g>
			<path d="M0 282.15 L0 270 L18.22 270 L24.3 270 L30.37 270 L48.6 270 L48.6 282.15 L77.4 309.6 L48.6 290.25 L48.6 302.4
						 L30.37 302.4 L24.3 302.4 L18.22 302.4 L0 302.4 L0 290.25 L0 286.2 L0 282.15 Z" class="st3"/>
			<text x="9.67" y="283.2" class="st8" v:langID="1033"><v:paragraph v:horizAlign="1"/><v:tabList/>Integer <tspan x="8.1"
						dy="1.2em" class="st9">variable</tspan></text>		</g>
		<g id="shape42-152" v:mID="42" v:groupContext="shape" transform="translate(21.6,-136.8)">
			<title>Circle.42</title>
			<desc>‘a’</desc>
			<v:userDefs>
				<v:ud v:nameU="visVersion" v:val="VT0(12):26"/>
				<v:ud v:nameU="msvThemeColors" v:val="VT0(36):26"/>
				<v:ud v:nameU="msvThemeEffects" v:val="VT0(16):26"/>
			</v:userDefs>
			<v:textBlock v:margins="rect(4,4,4,4)"/>
			<v:textRect cx="18" cy="284.4" width="36" height="36"/>
			<g id="shadow42-153" v:groupContext="shadow" v:shadowOffsetX="1.44" v:shadowOffsetY="-1.44" v:shadowType="1"
					transform="matrix(1,0,0,1,1.44,1.44)" class="st1">
				<path d="M0 284.4 A18 18 0 0 1 36 284.4 A18 18 0 1 1 0 284.4 Z" class="st2"/>
			</g>
			<path d="M0 284.4 A18 18 0 0 1 36 284.4 A18 18 0 1 1 0 284.4 Z" class="st4"/>
			<text x="10.94" y="288.6" class="st5" v:langID="1033"><v:paragraph v:horizAlign="1"/><v:tabList/>‘a’</text>		</g>
		<g id="shape43-158" v:mID="43" v:groupContext="shape" transform="translate(72,-136.8)">
			<title>Circle.43</title>
			<desc>‘:=’</desc>
			<v:userDefs>
				<v:ud v:nameU="visVersion" v:val="VT0(12):26"/>
				<v:ud v:nameU="msvThemeColors" v:val="VT0(36):26"/>
				<v:ud v:nameU="msvThemeEffects" v:val="VT0(16):26"/>
			</v:userDefs>
			<v:textBlock v:margins="rect(4,4,4,4)"/>
			<v:textRect cx="18" cy="284.4" width="36" height="36"/>
			<g id="shadow43-159" v:groupContext="shadow" v:shadowOffsetX="1.44" v:shadowOffsetY="-1.44" v:shadowType="1"
					transform="matrix(1,0,0,1,1.44,1.44)" class="st1">
				<path d="M0 284.4 A18 18 0 0 1 36 284.4 A18 18 0 1 1 0 284.4 Z" class="st2"/>
			</g>
			<path d="M0 284.4 A18 18 0 0 1 36 284.4 A18 18 0 1 1 0 284.4 Z" class="st4"/>
			<text x="8.97" y="288.6" class="st5" v:langID="1033"><v:paragraph v:horizAlign="1"/><v:tabList/>‘:=’</text>		</g>
		<g id="shape44-164" v:mID="44" v:groupContext="shape" transform="translate(122.4,-136.8)">
			<title>Circle.44</title>
			<desc>2</desc>
			<v:userDefs>
				<v:ud v:nameU="visVersion" v:val="VT0(12):26"/>
				<v:ud v:nameU="msvThemeColors" v:val="VT0(36):26"/>
				<v:ud v:nameU="msvThemeEffects" v:val="VT0(16):26"/>
			</v:userDefs>
			<v:textBlock v:margins="rect(4,4,4,4)"/>
			<v:textRect cx="18" cy="284.4" width="36" height="36"/>
			<g id="shadow44-165" v:groupContext="shadow" v:shadowOffsetX="1.44" v:shadowOffsetY="-1.44" v:shadowType="1"
					transform="matrix(1,0,0,1,1.44,1.44)" class="st1">
				<path d="M0 284.4 A18 18 0 0 1 36 284.4 A18 18 0 1 1 0 284.4 Z" class="st2"/>
			</g>
			<path d="M0 284.4 A18 18 0 0 1 36 284.4 A18 18 0 1 1 0 284.4 Z" class="st4"/>
			<text x="14.45" y="288.6" class="st5" v:langID="1033"><v:paragraph v:horizAlign="1"/><v:tabList/>2</text>		</g>
		<g id="shape45-170" v:mID="45" v:groupContext="shape" transform="translate(169.2,-136.8)">
			<title>Circle.45</title>
			<desc>‘+’</desc>
			<v:userDefs>
				<v:ud v:nameU="visVersion" v:val="VT0(12):26"/>
				<v:ud v:nameU="msvThemeColors" v:val="VT0(36):26"/>
				<v:ud v:nameU="msvThemeEffects" v:val="VT0(16):26"/>
			</v:userDefs>
			<v:textBlock v:margins="rect(4,4,4,4)"/>
			<v:textRect cx="18" cy="284.4" width="36" height="36"/>
			<g id="shadow45-171" v:groupContext="shadow" v:shadowOffsetX="1.44" v:shadowOffsetY="-1.44" v:shadowType="1"
					transform="matrix(1,0,0,1,1.44,1.44)" class="st1">
				<path d="M0 284.4 A18 18 0 0 1 36 284.4 A18 18 0 1 1 0 284.4 Z" class="st2"/>
			</g>
			<path d="M0 284.4 A18 18 0 0 1 36 284.4 A18 18 0 1 1 0 284.4 Z" class="st4"/>
			<text x="10.9" y="288.6" class="st5" v:langID="1033"><v:paragraph v:horizAlign="1"/><v:tabList/>‘+’</text>		</g>
		<g id="shape46-176" v:mID="46" v:groupContext="shape" transform="translate(216,-136.8)">
			<title>Circle.46</title>
			<desc>3.14</desc>
			<v:userDefs>
				<v:ud v:nameU="visVersion" v:val="VT0(12):26"/>
				<v:ud v:nameU="msvThemeColors" v:val="VT0(36):26"/>
				<v:ud v:nameU="msvThemeEffects" v:val="VT0(16):26"/>
			</v:userDefs>
			<v:textBlock v:margins="rect(4,4,4,4)"/>
			<v:textRect cx="18" cy="284.4" width="36" height="36"/>
			<g id="shadow46-177" v:groupContext="shadow" v:shadowOffsetX="1.44" v:shadowOffsetY="-1.44" v:shadowType="1"
					transform="matrix(1,0,0,1,1.44,1.44)" class="st1">
				<path d="M0 284.4 A18 18 0 0 1 36 284.4 A18 18 0 1 1 0 284.4 Z" class="st2"/>
			</g>
			<path d="M0 284.4 A18 18 0 0 1 36 284.4 A18 18 0 1 1 0 284.4 Z" class="st4"/>
			<text x="5.49" y="288.6" class="st5" v:langID="1033"><v:paragraph v:horizAlign="1"/><v:tabList/>3.14</text>		</g>
		<g id="shape56-182" v:mID="56" v:groupContext="shape" transform="translate(989.28,-68.4)">
			<title>Box</title>
			<desc>DEC_TO_INT</desc>
			<v:userDefs>
				<v:ud v:nameU="visVersion" v:val="VT0(12):26"/>
				<v:ud v:nameU="msvThemeColors" v:val="VT0(36):26"/>
				<v:ud v:nameU="msvThemeEffects" v:val="VT0(16):26"/>
			</v:userDefs>
			<v:textBlock v:margins="rect(4,4,4,4)"/>
			<v:textRect cx="48.6" cy="284.4" width="97.2" height="36"/>
			<g id="shadow56-183" v:groupContext="shadow" v:shadowOffsetX="1.44" v:shadowOffsetY="-1.44" v:shadowType="1"
					transform="matrix(1,0,0,1,1.44,1.44)" class="st1">
				<rect x="0" y="266.4" width="97.2" height="36" class="st2"/>
			</g>
			<rect x="0" y="266.4" width="97.2" height="36" class="st10"/>
			<text x="22.77" y="287.4" class="st8" v:langID="1033"><v:paragraph v:horizAlign="1"/><v:tabList/>DEC_TO_INT</text>		</g>
		<g id="shape57-189" v:mID="57" v:groupContext="shape" transform="translate(989.28,-241.2)">
			<title>Box.12</title>
			<desc>LOAD_DEC value=3.14</desc>
			<v:userDefs>
				<v:ud v:nameU="visVersion" v:val="VT0(12):26"/>
				<v:ud v:nameU="msvThemeColors" v:val="VT0(36):26"/>
				<v:ud v:nameU="msvThemeEffects" v:val="VT0(16):26"/>
			</v:userDefs>
			<v:textBlock v:margins="rect(4,4,4,4)"/>
			<v:textRect cx="48.6" cy="284.4" width="97.2" height="36"/>
			<g id="shadow57-190" v:groupContext="shadow" v:shadowOffsetX="1.44" v:shadowOffsetY="-1.44" v:shadowType="1"
					transform="matrix(1,0,0,1,1.44,1.44)" class="st1">
				<rect x="0" y="266.4" width="97.2" height="36" class="st2"/>
			</g>
			<rect x="0" y="266.4" width="97.2" height="36" class="st10"/>
			<text x="26.54" y="281.4" class="st8" v:langID="1033"><v:paragraph v:horizAlign="1"/><v:tabList/>LOAD_DEC<v:newlineChar/><tspan
						x="26.33" dy="1.2em" class="st9">value=3.14</tspan></text>		</g>
		<g id="shape58-196" v:mID="58" v:groupContext="shape" transform="translate(989.28,-198)">
			<title>Box.13</title>
			<desc>LOAD_INT value=2</desc>
			<v:userDefs>
				<v:ud v:nameU="visVersion" v:val="VT0(12):26"/>
				<v:ud v:nameU="msvThemeColors" v:val="VT0(36):26"/>
				<v:ud v:nameU="msvThemeEffects" v:val="VT0(16):26"/>
			</v:userDefs>
			<v:textBlock v:margins="rect(4,4,4,4)"/>
			<v:textRect cx="48.6" cy="284.4" width="97.2" height="36"/>
			<g id="shadow58-197" v:groupContext="shadow" v:shadowOffsetX="1.44" v:shadowOffsetY="-1.44" v:shadowType="1"
					transform="matrix(1,0,0,1,1.44,1.44)" class="st1">
				<rect x="0" y="266.4" width="97.2" height="36" class="st2"/>
			</g>
			<rect x="0" y="266.4" width="97.2" height="36" class="st10"/>
			<text x="27.8" y="281.4" class="st8" v:langID="1033"><v:paragraph v:horizAlign="1"/><v:tabList/>LOAD_INT<v:newlineChar/><tspan
						x="32.66" dy="1.2em" class="st9">value=2</tspan></text>		</g>
		<g id="shape59-203" v:mID="59" v:groupContext="shape" transform="translate(989.28,-154.8)">
			<title>Box.14</title>
			<desc>INT_TO_DEC</desc>
			<v:userDefs>
				<v:ud v:nameU="visVersion" v:val="VT0(12):26"/>
				<v:ud v:nameU="msvThemeColors" v:val="VT0(36):26"/>
				<v:ud v:nameU="msvThemeEffects" v:val="VT0(16):26"/>
			</v:userDefs>
			<v:textBlock v:margins="rect(4,4,4,4)"/>
			<v:textRect cx="48.6" cy="284.4" width="97.2" height="36"/>
			<g id="shadow59-204" v:groupContext="shadow" v:shadowOffsetX="1.44" v:shadowOffsetY="-1.44" v:shadowType="1"
					transform="matrix(1,0,0,1,1.44,1.44)" class="st1">
				<rect x="0" y="266.4" width="97.2" height="36" class="st2"/>
			</g>
			<rect x="0" y="266.4" width="97.2" height="36" class="st10"/>
			<text x="22.77" y="287.4" class="st8" v:langID="1033"><v:paragraph v:horizAlign="1"/><v:tabList/>INT_TO_DEC</text>		</g>
		<g id="shape60-209" v:mID="60" v:groupContext="shape" transform="translate(989.28,-111.6)">
			<title>Box.15</title>
			<desc>ADD_DEC</desc>
			<v:userDefs>
				<v:ud v:nameU="visVersion" v:val="VT0(12):26"/>
				<v:ud v:nameU="msvThemeColors" v:val="VT0(36):26"/>
				<v:ud v:nameU="msvThemeEffects" v:val="VT0(16):26"/>
			</v:userDefs>
			<v:textBlock v:margins="rect(4,4,4,4)"/>
			<v:textRect cx="48.6" cy="284.4" width="97.2" height="36"/>
			<g id="shadow60-210" v:groupContext="shadow" v:shadowOffsetX="1.44" v:shadowOffsetY="-1.44" v:shadowType="1"
					transform="matrix(1,0,0,1,1.44,1.44)" class="st1">
				<rect x="0" y="266.4" width="97.2" height="36" class="st2"/>
			</g>
			<rect x="0" y="266.4" width="97.2" height="36" class="st10"/>
			<text x="28.88" y="287.4" class="st8" v:langID="1033"><v:paragraph v:horizAlign="1"/><v:tabList/>ADD_DEC</text>		</g>
		<g id="shape61-215" v:mID="61" v:groupContext="shape" transform="translate(989.28,-25.2)">
			<title>Box.16</title>
			<desc>STOR_INT index=0</desc>
			<v:userDefs>
				<v:ud v:nameU="visVersion" v:val="VT0(12):26"/>
				<v:ud v:nameU="msvThemeColors" v:val="VT0(36):26"/>
				<v:ud v:nameU="msvThemeEffects" v:val="VT0(16):26"/>
			</v:userDefs>
			<v:textBlock v:margins="rect(4,4,4,4)"/>
			<v:textRect cx="48.6" cy="284.4" width="97.2" height="36"/>
			<g id="shadow61-216" v:groupContext="shadow" v:shadowOffsetX="1.44" v:shadowOffsetY="-1.44" v:shadowType="1"
					transform="matrix(1,0,0,1,1.44,1.44)" class="st1">
				<rect x="0" y="266.4" width="97.2" height="36" class="st2"/>
			</g>
			<rect x="0" y="266.4" width="97.2" height="36" class="st10"/>
			<text x="28.43" y="281.4" class="st8" v:langID="1033"><v:paragraph v:horizAlign="1"/><v:tabList/>STOR_INT<v:newlineChar/><tspan
						x="32.52" dy="1.2em" class="st9">index=0</tspan></text>		</g>
		<g id="group63-222" transform="translate(284.4,-136.8)" v:mID="63" v:groupContext="group">
			<v:userDefs>
				<v:ud v:nameU="visVersion" v:val="VT0(12):26"/>
				<v:ud v:nameU="msvThemeColors" v:val="VT0(36):26"/>
				<v:ud v:nameU="msvThemeEffects" v:val="VT0(16):26"/>
			</v:userDefs>
			<title>1-D single, open</title>
			<g id="shape64-223" v:mID="64" v:groupContext="shape">
				<title>Sheet.64</title>
				<v:userDefs>
					<v:ud v:nameU="msvThemeColors" v:val="VT0(36):26"/>
					<v:ud v:nameU="msvThemeEffects" v:val="VT0(16):26"/>
				</v:userDefs>
				<g id="shadow64-224" v:groupContext="shadow" v:shadowOffsetX="1.44" v:shadowOffsetY="-1.44" v:shadowType="1"
						transform="matrix(1,0,0,1,1.44,1.44)" class="st1">
					<path d="M-0.75 293.4 L34.2 293.4 L34.2 302.4 L43.2 284.4 L34.2 266.4 L34.2 275.4 L-0.75 275.4 L-0.75 293.4 Z"
							class="st11"/>
					<path d="M-0.75 293.4 L34.2 293.4 L34.2 302.4 L43.2 284.4 L34.2 266.4 L34.2 275.4 L-0.75 275.4" class="st6"/>
				</g>
				<path d="M-0.75 293.4 L34.2 293.4 L34.2 302.4 L43.2 284.4 L34.2 266.4 L34.2 275.4 L-0.75 275.4 L-0.75 293.4 Z"
						class="st12"/>
				<path d="M-0.75 293.4 L34.2 293.4 L34.2 302.4 L43.2 284.4 L34.2 266.4 L34.2 275.4 L-0.75 275.4" class="st7"/>
			</g>
			<g id="shape65-231" v:mID="65" v:groupContext="shape">
				<title>Sheet.65</title>
				<v:userDefs>
					<v:ud v:nameU="msvThemeColors" v:val="VT0(36):26"/>
					<v:ud v:nameU="msvThemeEffects" v:val="VT0(16):26"/>
				</v:userDefs>
				<path d="M0 293.4 L34.2 293.4 L34.2 302.4 L43.2 284.4 L34.2 266.4 L34.2 275.4 L0 275.4" class="st7"/>
			</g>
			<g id="shape66-235" v:mID="66" v:groupContext="shape" transform="translate(-0.5,-9.25)">
				<title>Sheet.66</title>
				<v:userDefs>
					<v:ud v:nameU="msvThemeColors" v:val="VT0(36):26"/>
					<v:ud v:nameU="msvThemeEffects" v:val="VT0(16):26"/>
				</v:userDefs>
				<rect x="0" y="284.9" width="0.5" height="17.5" class="st13"/>
			</g>
		</g>
		<g id="group75-238" transform="translate(518.4,-136.8)" v:mID="75" v:groupContext="group">
			<v:userDefs>
				<v:ud v:nameU="visVersion" v:val="VT0(12):26"/>
				<v:ud v:nameU="msvThemeColors" v:val="VT0(36):26"/>
				<v:ud v:nameU="msvThemeEffects" v:val="VT0(16):26"/>
			</v:userDefs>
			<title>1-D single, open.75</title>
			<g id="shape76-239" v:mID="76" v:groupContext="shape">
				<title>Sheet.76</title>
				<v:userDefs>
					<v:ud v:nameU="msvThemeColors" v:val="VT0(36):26"/>
					<v:ud v:nameU="msvThemeEffects" v:val="VT0(16):26"/>
				</v:userDefs>
				<g id="shadow76-240" v:groupContext="shadow" v:shadowOffsetX="1.44" v:shadowOffsetY="-1.44" v:shadowType="1"
						transform="matrix(1,0,0,1,1.44,1.44)" class="st1">
					<path d="M-0.75 293.4 L34.2 293.4 L34.2 302.4 L43.2 284.4 L34.2 266.4 L34.2 275.4 L-0.75 275.4 L-0.75 293.4 Z"
							class="st11"/>
					<path d="M-0.75 293.4 L34.2 293.4 L34.2 302.4 L43.2 284.4 L34.2 266.4 L34.2 275.4 L-0.75 275.4" class="st6"/>
				</g>
				<path d="M-0.75 293.4 L34.2 293.4 L34.2 302.4 L43.2 284.4 L34.2 266.4 L34.2 275.4 L-0.75 275.4 L-0.75 293.4 Z"
						class="st12"/>
				<path d="M-0.75 293.4 L34.2 293.4 L34.2 302.4 L43.2 284.4 L34.2 266.4 L34.2 275.4 L-0.75 275.4" class="st7"/>
			</g>
			<g id="shape77-246" v:mID="77" v:groupContext="shape">
				<title>Sheet.77</title>
				<v:userDefs>
					<v:ud v:nameU="msvThemeColors" v:val="VT0(36):26"/>
					<v:ud v:nameU="msvThemeEffects" v:val="VT0(16):26"/>
				</v:userDefs>
				<path d="M0 293.4 L34.2 293.4 L34.2 302.4 L43.2 284.4 L34.2 266.4 L34.2 275.4 L0 275.4" class="st7"/>
			</g>
			<g id="shape78-250" v:mID="78" v:groupContext="shape" transform="translate(-0.5,-9.25)">
				<title>Sheet.78</title>
				<v:userDefs>
					<v:ud v:nameU="msvThemeColors" v:val="VT0(36):26"/>
					<v:ud v:nameU="msvThemeEffects" v:val="VT0(16):26"/>
				</v:userDefs>
				<rect x="0" y="284.9" width="0.5" height="17.5" class="st13"/>
			</g>
		</g>
		<g id="group79-253" transform="translate(914.4,-136.8)" v:mID="79" v:groupContext="group">
			<v:userDefs>
				<v:ud v:nameU="visVersion" v:val="VT0(12):26"/>
				<v:ud v:nameU="msvThemeColors" v:val="VT0(36):26"/>
				<v:ud v:nameU="msvThemeEffects" v:val="VT0(16):26"/>
			</v:userDefs>
			<title>1-D single, open.79</title>
			<g id="shape80-254" v:mID="80" v:groupContext="shape">
				<title>Sheet.80</title>
				<v:userDefs>
					<v:ud v:nameU="msvThemeColors" v:val="VT0(36):26"/>
					<v:ud v:nameU="msvThemeEffects" v:val="VT0(16):26"/>
				</v:userDefs>
				<g id="shadow80-255" v:groupContext="shadow" v:shadowOffsetX="1.44" v:shadowOffsetY="-1.44" v:shadowType="1"
						transform="matrix(1,0,0,1,1.44,1.44)" class="st1">
					<path d="M-0.75 293.4 L34.2 293.4 L34.2 302.4 L43.2 284.4 L34.2 266.4 L34.2 275.4 L-0.75 275.4 L-0.75 293.4 Z"
							class="st11"/>
					<path d="M-0.75 293.4 L34.2 293.4 L34.2 302.4 L43.2 284.4 L34.2 266.4 L34.2 275.4 L-0.75 275.4" class="st6"/>
				</g>
				<path d="M-0.75 293.4 L34.2 293.4 L34.2 302.4 L43.2 284.4 L34.2 266.4 L34.2 275.4 L-0.75 275.4 L-0.75 293.4 Z"
						class="st12"/>
				<path d="M-0.75 293.4 L34.2 293.4 L34.2 302.4 L43.2 284.4 L34.2 266.4 L34.2 275.4 L-0.75 275.4" class="st7"/>
			</g>
			<g id="shape81-261" v:mID="81" v:groupContext="shape">
				<title>Sheet.81</title>
				<v:userDefs>
					<v:ud v:nameU="msvThemeColors" v:val="VT0(36):26"/>
					<v:ud v:nameU="msvThemeEffects" v:val="VT0(16):26"/>
				</v:userDefs>
				<path d="M0 293.4 L34.2 293.4 L34.2 302.4 L43.2 284.4 L34.2 266.4 L34.2 275.4 L0 275.4" class="st7"/>
			</g>
			<g id="shape82-265" v:mID="82" v:groupContext="shape" transform="translate(-0.5,-9.25)">
				<title>Sheet.82</title>
				<v:userDefs>
					<v:ud v:nameU="msvThemeColors" v:val="VT0(36):26"/>
					<v:ud v:nameU="msvThemeEffects" v:val="VT0(16):26"/>
				</v:userDefs>
				<rect x="0" y="284.9" width="0.5" height="17.5" class="st13"/>
			</g>
		</g>
	</g>
</svg>
