<?xml version="1.0" encoding="UTF-8" standalone="no"?>
<!DOCTYPE svg PUBLIC "-//W3C//DTD SVG 1.1//EN" "http://www.w3.org/Graphics/SVG/1.1/DTD/svg11.dtd">
<!-- Generated by Microsoft Visio, SVG Export compiling2.svg Page-6 -->
<svg xmlns="http://www.w3.org/2000/svg" xmlns:xlink="http://www.w3.org/1999/xlink" xmlns:ev="http://www.w3.org/2001/xml-events"
		xmlns:v="http://schemas.microsoft.com/visio/2003/SVGExtensions/" width="15.5in" height="4.5in" viewBox="0 0 1116 324"
		xml:space="preserve" color-interpolation-filters="sRGB" class="st16">
	<v:documentProperties v:langID="1033">
		<v:userDefs>
			<v:ud v:nameU="DocShowPicture" v:prompt="" v:val="VT0(1):26"/>
			<v:ud v:nameU="msvConvertTheme"/>
		</v:userDefs>
	</v:documentProperties>
	<v:reviewers>
		<v:reviewer v:name="Randy Hollines" v:initials="RH" color="#ff0000" v:reviewerId="1" v:currentIndex="2"/>
	</v:reviewers>

	<style type="text/css">
	<![CDATA[
		.st1 {visibility:visible}
		.st2 {fill:#cdcdcd;fill-opacity:0.5;stroke:#cdcdcd;stroke-linecap:round;stroke-linejoin:round;stroke-opacity:0.5}
		.st3 {fill:url(#grad0-6);stroke:#404040;stroke-linecap:round;stroke-linejoin:round;stroke-width:0.25}
		.st4 {fill:#000000;font-family:Calibri;font-size:1.16666em;font-weight:bold}
		.st5 {stroke:#cdcdcd;stroke-linecap:round;stroke-linejoin:round;stroke-opacity:0.5;stroke-width:0.25}
		.st6 {stroke:#404040;stroke-linecap:round;stroke-linejoin:round;stroke-width:0.25}
		.st7 {fill:url(#grad0-22);stroke:#404040;stroke-linecap:round;stroke-linejoin:round;stroke-width:0.25}
		.st8 {fill:#000000;font-family:Calibri;font-size:0.833336em}
		.st9 {font-size:1em}
		.st10 {fill:#cdcdcd;fill-opacity:0.5}
		.st11 {fill:url(#grad0-22)}
		.st12 {fill:url(#grad0-22);stroke:#f0f0f0;stroke-linecap:round;stroke-linejoin:round;stroke-width:0.25;visibility:hidden}
		.st13 {fill:url(#grad0-223);stroke:#404040;stroke-linecap:round;stroke-linejoin:round;stroke-width:0.25}
		.st14 {fill:url(#grad0-265)}
		.st15 {fill:url(#grad0-265);stroke:#646464;stroke-linecap:round;stroke-linejoin:round;stroke-width:0.25}
		.st16 {fill:none;fill-rule:evenodd;font-size:12px;overflow:visible;stroke-linecap:square;stroke-miterlimit:3}
	]]>
	</style>

	<defs id="Patterns_And_Gradients">
		<linearGradient id="grad0-6" x1="0" y1="0" x2="1" y2="0" gradientTransform="rotate(270 0.5 0.5)">
			<stop offset="0" stop-color="#cacaca" stop-opacity="1"/>
			<stop offset="1" stop-color="#d9d9d9" stop-opacity="1"/>
		</linearGradient>
		<linearGradient id="grad0-22" x1="0" y1="0" x2="1" y2="0" gradientTransform="rotate(270 0.5 0.5)">
			<stop offset="0" stop-color="#f0f0f0" stop-opacity="1"/>
			<stop offset="1" stop-color="#ffffff" stop-opacity="1"/>
		</linearGradient>
		<linearGradient id="grad0-223" x1="0" y1="0" x2="1" y2="0" gradientTransform="rotate(270 0.5 0.5)">
			<stop offset="0" stop-color="#b0b0b0" stop-opacity="1"/>
			<stop offset="1" stop-color="#bfbfbf" stop-opacity="1"/>
		</linearGradient>
		<linearGradient id="grad0-265" x1="0" y1="0" x2="1" y2="0" gradientTransform="rotate(270 0.5 0.5)">
			<stop offset="0" stop-color="#646464" stop-opacity="1"/>
			<stop offset="1" stop-color="#737373" stop-opacity="1"/>
		</linearGradient>
	</defs>
	<g v:mID="8" v:index="6" v:groupContext="foregroundPage">
		<v:custProps>
			<v:cp v:nameU="ShapeClass" v:lbl="Shape Class" v:type="1" v:invis="true" v:langID="1033"
					v:val="VT4({52BC4E31-A33B-11d1-B2B9-006008BD347E})"/>
		</v:custProps>
		<v:userDefs>
			<v:ud v:nameU="msvThemeColors" v:val="VT0(36):26"/>
			<v:ud v:nameU="msvThemeEffects" v:val="VT0(16):26"/>
			<v:ud v:nameU="msvThemeOrder" v:val="VT0(1):26"/>
		</v:userDefs>
		<title>Page-6</title>
		<v:pageProperties v:drawingScale="1" v:pageScale="1" v:drawingUnits="0" v:shadowOffsetX="9" v:shadowOffsetY="-9"/>
		<v:layer v:name="New Plants" v:index="0"/>
		<v:layer v:name="Plant" v:index="1"/>
		<v:layer v:name="Connector" v:index="2"/>
		<g id="shape1-1" v:mID="1" v:groupContext="shape" transform="translate(385.2,-54.9)">
			<title>Circle</title>
			<desc>2</desc>
			<v:userDefs>
				<v:ud v:nameU="visVersion" v:val="VT0(12):26"/>
				<v:ud v:nameU="msvThemeColors" v:val="VT0(36):26"/>
				<v:ud v:nameU="msvThemeEffects" v:val="VT0(16):26"/>
			</v:userDefs>
			<v:textBlock v:margins="rect(4,4,4,4)"/>
			<v:textRect cx="18" cy="306" width="36" height="36"/>
			<g id="shadow1-2" v:groupContext="shadow" v:shadowOffsetX="1.44" v:shadowOffsetY="-1.44" v:shadowType="1"
					transform="matrix(1,0,0,1,1.44,1.44)" class="st1">
				<path d="M0 306 A18 18 0 0 1 36 306 A18 18 0 1 1 0 306 Z" class="st2"/>
			</g>
			<path d="M0 306 A18 18 0 0 1 36 306 A18 18 0 1 1 0 306 Z" class="st3"/>
			<text x="14.45" y="310.2" class="st4" v:langID="1033"><v:paragraph v:horizAlign="1"/><v:tabList/>2</text>		</g>
		<g id="shape2-8" v:mID="2" v:groupContext="shape" transform="translate(471.6,-53.1)">
			<title>Circle.2</title>
			<desc>3.14</desc>
			<v:userDefs>
				<v:ud v:nameU="visVersion" v:val="VT0(12):26"/>
				<v:ud v:nameU="msvThemeColors" v:val="VT0(36):26"/>
				<v:ud v:nameU="msvThemeEffects" v:val="VT0(16):26"/>
			</v:userDefs>
			<v:textBlock v:margins="rect(4,4,4,4)"/>
			<v:textRect cx="18" cy="306" width="36" height="36"/>
			<g id="shadow2-9" v:groupContext="shadow" v:shadowOffsetX="1.44" v:shadowOffsetY="-1.44" v:shadowType="1"
					transform="matrix(1,0,0,1,1.44,1.44)" class="st1">
				<path d="M0 306 A18 18 0 0 1 36 306 A18 18 0 1 1 0 306 Z" class="st2"/>
			</g>
			<path d="M0 306 A18 18 0 0 1 36 306 A18 18 0 1 1 0 306 Z" class="st3"/>
			<text x="5.49" y="310.2" class="st4" v:langID="1033"><v:paragraph v:horizAlign="1"/><v:tabList/>3.14</text>		</g>
		<g id="shape3-14" v:mID="3" v:groupContext="shape" transform="translate(770.4,183.6) rotate(90)">
			<title>Double tree sloped.28</title>
			<v:userDefs>
				<v:ud v:nameU="Scale" v:val="VT0(1):26"/>
				<v:ud v:nameU="AntiScale" v:val="VT0(1):26"/>
				<v:ud v:nameU="visVersion" v:val="VT0(12):26"/>
				<v:ud v:nameU="msvThemeColors" v:val="VT0(36):26"/>
				<v:ud v:nameU="msvThemeEffects" v:val="VT0(16):26"/>
			</v:userDefs>
			<g id="shadow3-15" v:groupContext="shadow" v:shadowOffsetX="1.44" v:shadowOffsetY="-1.44" v:shadowType="1"
					transform="matrix(1,0,0,1,1.44,-1.44)" class="st1">
				<path d="M0 324 L27.9 324" class="st5"/>
				<path d="M27.9 324 L38.7 280.8 L51.3 280.8" class="st5"/>
				<path d="M27.9 324 L38.7 367.2 L49.5 367.2" class="st5"/>
			</g>
			<path d="M0 324 L27.9 324" class="st6"/>
			<path d="M27.9 324 L38.7 280.8 L51.3 280.8" class="st6"/>
			<path d="M27.9 324 L38.7 367.2 L49.5 367.2" class="st6"/>
		</g>
		<g id="shape4-26" v:mID="4" v:groupContext="shape" transform="translate(428.4,-140.4)">
			<title>Circle.4</title>
			<desc>‘+’</desc>
			<v:userDefs>
				<v:ud v:nameU="visVersion" v:val="VT0(12):26"/>
				<v:ud v:nameU="msvThemeColors" v:val="VT0(36):26"/>
				<v:ud v:nameU="msvThemeEffects" v:val="VT0(16):26"/>
			</v:userDefs>
			<v:textBlock v:margins="rect(4,4,4,4)"/>
			<v:textRect cx="18" cy="306" width="36" height="36"/>
			<g id="shadow4-27" v:groupContext="shadow" v:shadowOffsetX="1.44" v:shadowOffsetY="-1.44" v:shadowType="1"
					transform="matrix(1,0,0,1,1.44,1.44)" class="st1">
				<path d="M0 306 A18 18 0 0 1 36 306 A18 18 0 1 1 0 306 Z" class="st2"/>
			</g>
			<path d="M0 306 A18 18 0 0 1 36 306 A18 18 0 1 1 0 306 Z" class="st3"/>
			<text x="10.9" y="310.2" class="st4" v:langID="1033"><v:paragraph v:horizAlign="1"/><v:tabList/>‘+’</text>		</g>
		<g id="shape5-32" v:mID="5" v:groupContext="shape" transform="translate(727.2,93.6) rotate(90)">
			<title>Double tree sloped.5</title>
			<v:userDefs>
				<v:ud v:nameU="Scale" v:val="VT0(1):26"/>
				<v:ud v:nameU="AntiScale" v:val="VT0(1):26"/>
				<v:ud v:nameU="visVersion" v:val="VT0(12):26"/>
				<v:ud v:nameU="msvThemeColors" v:val="VT0(36):26"/>
				<v:ud v:nameU="msvThemeEffects" v:val="VT0(16):26"/>
			</v:userDefs>
			<g id="shadow5-33" v:groupContext="shadow" v:shadowOffsetX="1.44" v:shadowOffsetY="-1.44" v:shadowType="1"
					transform="matrix(1,0,0,1,1.44,-1.44)" class="st1">
				<path d="M0 324 L27.9 324" class="st5"/>
				<path d="M27.9 324 L38.7 280.8 L54 280.8" class="st5"/>
				<path d="M27.9 324 L38.7 367.2 L54 367.2" class="st5"/>
			</g>
			<path d="M0 324 L27.9 324" class="st6"/>
			<path d="M27.9 324 L38.7 280.8 L54 280.8" class="st6"/>
			<path d="M27.9 324 L38.7 367.2 L54 367.2" class="st6"/>
		</g>
		<g id="shape6-43" v:mID="6" v:groupContext="shape" transform="translate(342,-140.4)">
			<title>Circle.6</title>
			<desc>‘a’</desc>
			<v:userDefs>
				<v:ud v:nameU="visVersion" v:val="VT0(12):26"/>
				<v:ud v:nameU="msvThemeColors" v:val="VT0(36):26"/>
				<v:ud v:nameU="msvThemeEffects" v:val="VT0(16):26"/>
			</v:userDefs>
			<v:textBlock v:margins="rect(4,4,4,4)"/>
			<v:textRect cx="18" cy="306" width="36" height="36"/>
			<g id="shadow6-44" v:groupContext="shadow" v:shadowOffsetX="1.44" v:shadowOffsetY="-1.44" v:shadowType="1"
					transform="matrix(1,0,0,1,1.44,1.44)" class="st1">
				<path d="M0 306 A18 18 0 0 1 36 306 A18 18 0 1 1 0 306 Z" class="st2"/>
			</g>
			<path d="M0 306 A18 18 0 0 1 36 306 A18 18 0 1 1 0 306 Z" class="st3"/>
			<text x="10.94" y="310.2" class="st4" v:langID="1033"><v:paragraph v:horizAlign="1"/><v:tabList/>‘a’</text>		</g>
		<g id="shape7-49" v:mID="7" v:groupContext="shape" transform="translate(385.2,-230.4)">
			<title>Circle.7</title>
			<desc>‘:=’</desc>
			<v:userDefs>
				<v:ud v:nameU="visVersion" v:val="VT0(12):26"/>
				<v:ud v:nameU="msvThemeColors" v:val="VT0(36):26"/>
				<v:ud v:nameU="msvThemeEffects" v:val="VT0(16):26"/>
			</v:userDefs>
			<v:textBlock v:margins="rect(4,4,4,4)"/>
			<v:textRect cx="18" cy="306" width="36" height="36"/>
			<g id="shadow7-50" v:groupContext="shadow" v:shadowOffsetX="1.44" v:shadowOffsetY="-1.44" v:shadowType="1"
					transform="matrix(1,0,0,1,1.44,1.44)" class="st1">
				<path d="M0 306 A18 18 0 0 1 36 306 A18 18 0 1 1 0 306 Z" class="st2"/>
			</g>
			<path d="M0 306 A18 18 0 0 1 36 306 A18 18 0 1 1 0 306 Z" class="st3"/>
			<text x="8.97" y="310.2" class="st4" v:langID="1033"><v:paragraph v:horizAlign="1"/><v:tabList/>‘:=’</text>		</g>
		<g id="shape8-55" v:mID="8" v:groupContext="shape" transform="translate(720,-51.3)">
			<title>Circle.8</title>
			<desc>2</desc>
			<v:userDefs>
				<v:ud v:nameU="visVersion" v:val="VT0(12):26"/>
				<v:ud v:nameU="msvThemeColors" v:val="VT0(36):26"/>
				<v:ud v:nameU="msvThemeEffects" v:val="VT0(16):26"/>
			</v:userDefs>
			<v:textBlock v:margins="rect(4,4,4,4)"/>
			<v:textRect cx="18" cy="306" width="36" height="36"/>
			<g id="shadow8-56" v:groupContext="shadow" v:shadowOffsetX="1.44" v:shadowOffsetY="-1.44" v:shadowType="1"
					transform="matrix(1,0,0,1,1.44,1.44)" class="st1">
				<path d="M0 306 A18 18 0 0 1 36 306 A18 18 0 1 1 0 306 Z" class="st2"/>
			</g>
			<path d="M0 306 A18 18 0 0 1 36 306 A18 18 0 1 1 0 306 Z" class="st3"/>
			<text x="14.45" y="310.2" class="st4" v:langID="1033"><v:paragraph v:horizAlign="1"/><v:tabList/>2</text>		</g>
		<g id="shape9-61" v:mID="9" v:groupContext="shape" transform="translate(806.4,-49.5)">
			<title>Circle.9</title>
			<desc>3.14</desc>
			<v:userDefs>
				<v:ud v:nameU="visVersion" v:val="VT0(12):26"/>
				<v:ud v:nameU="msvThemeColors" v:val="VT0(36):26"/>
				<v:ud v:nameU="msvThemeEffects" v:val="VT0(16):26"/>
			</v:userDefs>
			<v:textBlock v:margins="rect(4,4,4,4)"/>
			<v:textRect cx="18" cy="306" width="36" height="36"/>
			<g id="shadow9-62" v:groupContext="shadow" v:shadowOffsetX="1.44" v:shadowOffsetY="-1.44" v:shadowType="1"
					transform="matrix(1,0,0,1,1.44,1.44)" class="st1">
				<path d="M0 306 A18 18 0 0 1 36 306 A18 18 0 1 1 0 306 Z" class="st2"/>
			</g>
			<path d="M0 306 A18 18 0 0 1 36 306 A18 18 0 1 1 0 306 Z" class="st3"/>
			<text x="5.49" y="310.2" class="st4" v:langID="1033"><v:paragraph v:horizAlign="1"/><v:tabList/>3.14</text>		</g>
		<g id="shape10-67" v:mID="10" v:groupContext="shape" transform="translate(1105.2,187.2) rotate(90)">
			<title>Double tree sloped.10</title>
			<v:userDefs>
				<v:ud v:nameU="Scale" v:val="VT0(1):26"/>
				<v:ud v:nameU="AntiScale" v:val="VT0(1):26"/>
				<v:ud v:nameU="visVersion" v:val="VT0(12):26"/>
				<v:ud v:nameU="msvThemeColors" v:val="VT0(36):26"/>
				<v:ud v:nameU="msvThemeEffects" v:val="VT0(16):26"/>
			</v:userDefs>
			<g id="shadow10-68" v:groupContext="shadow" v:shadowOffsetX="1.44" v:shadowOffsetY="-1.44" v:shadowType="1"
					transform="matrix(1,0,0,1,1.44,-1.44)" class="st1">
				<path d="M0 324 L27.9 324" class="st5"/>
				<path d="M27.9 324 L38.7 280.8 L51.3 280.8" class="st5"/>
				<path d="M27.9 324 L38.7 367.2 L49.5 367.2" class="st5"/>
			</g>
			<path d="M0 324 L27.9 324" class="st6"/>
			<path d="M27.9 324 L38.7 280.8 L51.3 280.8" class="st6"/>
			<path d="M27.9 324 L38.7 367.2 L49.5 367.2" class="st6"/>
		</g>
		<g id="shape11-78" v:mID="11" v:groupContext="shape" transform="translate(763.2,-136.8)">
			<title>Circle.11</title>
			<desc>‘+’</desc>
			<v:userDefs>
				<v:ud v:nameU="visVersion" v:val="VT0(12):26"/>
				<v:ud v:nameU="msvThemeColors" v:val="VT0(36):26"/>
				<v:ud v:nameU="msvThemeEffects" v:val="VT0(16):26"/>
			</v:userDefs>
			<v:textBlock v:margins="rect(4,4,4,4)"/>
			<v:textRect cx="18" cy="306" width="36" height="36"/>
			<g id="shadow11-79" v:groupContext="shadow" v:shadowOffsetX="1.44" v:shadowOffsetY="-1.44" v:shadowType="1"
					transform="matrix(1,0,0,1,1.44,1.44)" class="st1">
				<path d="M0 306 A18 18 0 0 1 36 306 A18 18 0 1 1 0 306 Z" class="st2"/>
			</g>
			<path d="M0 306 A18 18 0 0 1 36 306 A18 18 0 1 1 0 306 Z" class="st3"/>
			<text x="10.9" y="310.2" class="st4" v:langID="1033"><v:paragraph v:horizAlign="1"/><v:tabList/>‘+’</text>		</g>
		<g id="shape12-84" v:mID="12" v:groupContext="shape" transform="translate(1062,97.2) rotate(90)">
			<title>Double tree sloped.12</title>
			<v:userDefs>
				<v:ud v:nameU="Scale" v:val="VT0(1):26"/>
				<v:ud v:nameU="AntiScale" v:val="VT0(1):26"/>
				<v:ud v:nameU="visVersion" v:val="VT0(12):26"/>
				<v:ud v:nameU="msvThemeColors" v:val="VT0(36):26"/>
				<v:ud v:nameU="msvThemeEffects" v:val="VT0(16):26"/>
			</v:userDefs>
			<g id="shadow12-85" v:groupContext="shadow" v:shadowOffsetX="1.44" v:shadowOffsetY="-1.44" v:shadowType="1"
					transform="matrix(1,0,0,1,1.44,-1.44)" class="st1">
				<path d="M0 324 L27.9 324" class="st5"/>
				<path d="M27.9 324 L38.7 280.8 L54 280.8" class="st5"/>
				<path d="M27.9 324 L38.7 367.2 L54 367.2" class="st5"/>
			</g>
			<path d="M0 324 L27.9 324" class="st6"/>
			<path d="M27.9 324 L38.7 280.8 L54 280.8" class="st6"/>
			<path d="M27.9 324 L38.7 367.2 L54 367.2" class="st6"/>
		</g>
		<g id="shape13-95" v:mID="13" v:groupContext="shape" transform="translate(676.8,-136.8)">
			<title>Circle.13</title>
			<desc>‘a’</desc>
			<v:userDefs>
				<v:ud v:nameU="visVersion" v:val="VT0(12):26"/>
				<v:ud v:nameU="msvThemeColors" v:val="VT0(36):26"/>
				<v:ud v:nameU="msvThemeEffects" v:val="VT0(16):26"/>
			</v:userDefs>
			<v:textBlock v:margins="rect(4,4,4,4)"/>
			<v:textRect cx="18" cy="306" width="36" height="36"/>
			<g id="shadow13-96" v:groupContext="shadow" v:shadowOffsetX="1.44" v:shadowOffsetY="-1.44" v:shadowType="1"
					transform="matrix(1,0,0,1,1.44,1.44)" class="st1">
				<path d="M0 306 A18 18 0 0 1 36 306 A18 18 0 1 1 0 306 Z" class="st2"/>
			</g>
			<path d="M0 306 A18 18 0 0 1 36 306 A18 18 0 1 1 0 306 Z" class="st3"/>
			<text x="10.94" y="310.2" class="st4" v:langID="1033"><v:paragraph v:horizAlign="1"/><v:tabList/>‘a’</text>		</g>
		<g id="shape14-101" v:mID="14" v:groupContext="shape" transform="translate(720,-226.8)">
			<title>Circle.14</title>
			<desc>‘:=’</desc>
			<v:userDefs>
				<v:ud v:nameU="visVersion" v:val="VT0(12):26"/>
				<v:ud v:nameU="msvThemeColors" v:val="VT0(36):26"/>
				<v:ud v:nameU="msvThemeEffects" v:val="VT0(16):26"/>
			</v:userDefs>
			<v:textBlock v:margins="rect(4,4,4,4)"/>
			<v:textRect cx="18" cy="306" width="36" height="36"/>
			<g id="shadow14-102" v:groupContext="shadow" v:shadowOffsetX="1.44" v:shadowOffsetY="-1.44" v:shadowType="1"
					transform="matrix(1,0,0,1,1.44,1.44)" class="st1">
				<path d="M0 306 A18 18 0 0 1 36 306 A18 18 0 1 1 0 306 Z" class="st2"/>
			</g>
			<path d="M0 306 A18 18 0 0 1 36 306 A18 18 0 1 1 0 306 Z" class="st3"/>
			<text x="8.97" y="310.2" class="st4" v:langID="1033"><v:paragraph v:horizAlign="1"/><v:tabList/>‘:=’</text>		</g>
		<g id="shape15-107" v:mID="15" v:groupContext="shape" transform="translate(861.3,-43.2)">
			<title>2-D word balloon</title>
			<desc>Decimal number</desc>
			<v:userDefs>
				<v:ud v:nameU="Scale" v:val="VT0(1):26"/>
				<v:ud v:nameU="AntiScale" v:val="VT0(1):26"/>
				<v:ud v:nameU="visVersion" v:val="VT0(12):26"/>
				<v:ud v:nameU="msvThemeColors" v:val="VT0(36):26"/>
				<v:ud v:nameU="msvThemeEffects" v:val="VT0(16):26"/>
			</v:userDefs>
			<v:textBlock v:margins="rect(4,4,4,4)"/>
			<v:textRect cx="24.3" cy="307.8" width="48.6" height="32.4"/>
			<g id="shadow15-108" v:groupContext="shadow" v:shadowOffsetX="1.44" v:shadowOffsetY="-1.44" v:shadowType="1"
					transform="matrix(1,0,0,1,1.44,1.44)" class="st1">
				<path d="M0 303.75 L0 291.6 L18.22 291.6 L24.3 291.6 L30.37 291.6 L48.6 291.6 L48.6 303.75 L48.6 307.8 L48.6 311.85
							 L48.6 324 L30.37 324 L24.3 324 L18.22 324 L0 324 L0 311.85 L-18.9 299.7 L0 303.75 Z" class="st2"/>
			</g>
			<path d="M0 303.75 L0 291.6 L18.22 291.6 L24.3 291.6 L30.37 291.6 L48.6 291.6 L48.6 303.75 L48.6 307.8 L48.6 311.85 L48.6
						 324 L30.37 324 L24.3 324 L18.22 324 L0 324 L0 311.85 L-18.9 299.7 L0 303.75 Z" class="st7"/>
			<text x="7.94" y="304.8" class="st8" v:langID="1033"><v:paragraph v:horizAlign="1"/><v:tabList/>Decimal <tspan x="8.19"
						dy="1.2em" class="st9">number</tspan></text>		</g>
		<g id="shape16-114" v:mID="16" v:groupContext="shape" transform="translate(576,-43.2)">
			<title>2-D word balloon.16</title>
			<desc>Integer number (cast: integer to decimal)</desc>
			<v:userDefs>
				<v:ud v:nameU="Scale" v:val="VT0(1):26"/>
				<v:ud v:nameU="AntiScale" v:val="VT0(1):26"/>
				<v:ud v:nameU="visVersion" v:val="VT0(12):26"/>
				<v:ud v:nameU="msvThemeColors" v:val="VT0(36):26"/>
				<v:ud v:nameU="msvThemeEffects" v:val="VT0(16):26"/>
			</v:userDefs>
			<v:textBlock v:margins="rect(4,4,4,4)"/>
			<v:textRect cx="61.2" cy="306.9" width="122.4" height="34.2"/>
			<g id="shadow16-115" v:groupContext="shadow" v:shadowOffsetX="1.44" v:shadowOffsetY="-1.44" v:shadowType="1"
					transform="matrix(1,0,0,1,1.44,1.44)" class="st1">
				<path d="M0 302.62 L0 289.8 L45.9 289.8 L61.2 289.8 L76.5 289.8 L122.4 289.8 L122.4 302.62 L144 297.9 L122.4 311.17
							 L122.4 324 L76.5 324 L61.2 324 L45.9 324 L0 324 L0 311.17 L0 306.9 L0 302.62 Z" class="st2"/>
			</g>
			<path d="M0 302.62 L0 289.8 L45.9 289.8 L61.2 289.8 L76.5 289.8 L122.4 289.8 L122.4 302.62 L144 297.9 L122.4 311.17 L122.4
						 324 L76.5 324 L61.2 324 L45.9 324 L0 324 L0 311.17 L0 306.9 L0 302.62 Z" class="st7"/>
			<text x="29.33" y="303.9" class="st8" v:langID="1033"><v:paragraph v:horizAlign="1"/><v:tabList/>Integer number<v:newlineChar/><tspan
						x="10.55" dy="1.2em" class="st9">(cast: integer to decimal)</tspan></text>		</g>
		<g id="shape17-121" v:mID="17" v:groupContext="shape" transform="translate(818.1,-162)">
			<title>2-D word balloon.17</title>
			<desc>Decimal addition</desc>
			<v:userDefs>
				<v:ud v:nameU="Scale" v:val="VT0(1):26"/>
				<v:ud v:nameU="AntiScale" v:val="VT0(1):26"/>
				<v:ud v:nameU="visVersion" v:val="VT0(12):26"/>
				<v:ud v:nameU="msvThemeColors" v:val="VT0(36):26"/>
				<v:ud v:nameU="msvThemeEffects" v:val="VT0(16):26"/>
			</v:userDefs>
			<v:textBlock v:margins="rect(4,4,4,4)"/>
			<v:textRect cx="24.3" cy="307.8" width="48.6" height="32.4"/>
			<g id="shadow17-122" v:groupContext="shadow" v:shadowOffsetX="1.44" v:shadowOffsetY="-1.44" v:shadowType="1"
					transform="matrix(1,0,0,1,1.44,1.44)" class="st1">
				<path d="M0 303.75 L0 291.6 L18.22 291.6 L24.3 291.6 L30.37 291.6 L48.6 291.6 L48.6 303.75 L48.6 307.8 L48.6 311.85
							 L48.6 324 L30.37 324 L24.3 324 L18.22 324 L0 324 L0 311.85 L-18.9 331.2 L0 303.75 Z" class="st2"/>
			</g>
			<path d="M0 303.75 L0 291.6 L18.22 291.6 L24.3 291.6 L30.37 291.6 L48.6 291.6 L48.6 303.75 L48.6 307.8 L48.6 311.85 L48.6
						 324 L30.37 324 L24.3 324 L18.22 324 L0 324 L0 311.85 L-18.9 331.2 L0 303.75 Z" class="st7"/>
			<text x="7.94" y="304.8" class="st8" v:langID="1033"><v:paragraph v:horizAlign="1"/><v:tabList/>Decimal <tspan x="7.42"
						dy="1.2em" class="st9">addition</tspan></text>		</g>
		<g id="shape18-128" v:mID="18" v:groupContext="shape" transform="translate(774.9,-241.2)">
			<title>2-D word balloon.18</title>
			<desc>Integer assignment (cast: decimal to Integer)</desc>
			<v:userDefs>
				<v:ud v:nameU="Scale" v:val="VT0(1):26"/>
				<v:ud v:nameU="AntiScale" v:val="VT0(1):26"/>
				<v:ud v:nameU="visVersion" v:val="VT0(12):26"/>
				<v:ud v:nameU="msvThemeColors" v:val="VT0(36):26"/>
				<v:ud v:nameU="msvThemeEffects" v:val="VT0(16):26"/>
			</v:userDefs>
			<v:textBlock v:margins="rect(4,4,4,4)"/>
			<v:textRect cx="62.55" cy="306" width="125.1" height="36"/>
			<g id="shadow18-129" v:groupContext="shadow" v:shadowOffsetX="1.44" v:shadowOffsetY="-1.44" v:shadowType="1"
					transform="matrix(1,0,0,1,1.44,1.44)" class="st1">
				<path d="M0 301.5 L0 288 L46.91 288 L62.55 288 L78.19 288 L125.1 288 L125.1 301.5 L125.1 306 L125.1 310.5 L125.1
							 324 L78.19 324 L62.55 324 L46.91 324 L0 324 L0 310.5 L-18.9 320.4 L0 301.5 Z" class="st2"/>
			</g>
			<path d="M0 301.5 L0 288 L46.91 288 L62.55 288 L78.19 288 L125.1 288 L125.1 301.5 L125.1 306 L125.1 310.5 L125.1 324
						 L78.19 324 L62.55 324 L46.91 324 L0 324 L0 310.5 L-18.9 320.4 L0 301.5 Z" class="st7"/>
			<text x="23.57" y="303" class="st8" v:langID="1033"><v:paragraph v:horizAlign="1"/><v:tabList/>Integer assignment<v:newlineChar/><tspan
						x="11.79" dy="1.2em" class="st9">(cast: decimal to Integer)</tspan></text>		</g>
		<g id="shape19-135" v:mID="19" v:groupContext="shape" transform="translate(599.4,-162)">
			<title>2-D word balloon.19</title>
			<desc>Integer variable</desc>
			<v:userDefs>
				<v:ud v:nameU="Scale" v:val="VT0(1):26"/>
				<v:ud v:nameU="AntiScale" v:val="VT0(1):26"/>
				<v:ud v:nameU="visVersion" v:val="VT0(12):26"/>
				<v:ud v:nameU="msvThemeColors" v:val="VT0(36):26"/>
				<v:ud v:nameU="msvThemeEffects" v:val="VT0(16):26"/>
			</v:userDefs>
			<v:textBlock v:margins="rect(4,4,4,4)"/>
			<v:textRect cx="24.3" cy="307.8" width="48.6" height="32.4"/>
			<g id="shadow19-136" v:groupContext="shadow" v:shadowOffsetX="1.44" v:shadowOffsetY="-1.44" v:shadowType="1"
					transform="matrix(1,0,0,1,1.44,1.44)" class="st1">
				<path d="M0 303.75 L0 291.6 L18.22 291.6 L24.3 291.6 L30.37 291.6 L48.6 291.6 L48.6 303.75 L77.4 331.2 L48.6 311.85
							 L48.6 324 L30.37 324 L24.3 324 L18.22 324 L0 324 L0 311.85 L0 307.8 L0 303.75 Z" class="st2"/>
			</g>
			<path d="M0 303.75 L0 291.6 L18.22 291.6 L24.3 291.6 L30.37 291.6 L48.6 291.6 L48.6 303.75 L77.4 331.2 L48.6 311.85 L48.6
						 324 L30.37 324 L24.3 324 L18.22 324 L0 324 L0 311.85 L0 307.8 L0 303.75 Z" class="st7"/>
			<text x="9.67" y="304.8" class="st8" v:langID="1033"><v:paragraph v:horizAlign="1"/><v:tabList/>Integer <tspan x="8.1"
						dy="1.2em" class="st9">variable</tspan></text>		</g>
		<g id="group37-142" transform="translate(18,-136.8)" v:mID="37" v:groupContext="group">
			<v:userDefs>
				<v:ud v:nameU="OpenEnd" v:val="VT0(3):26"/>
				<v:ud v:nameU="visVersion" v:val="VT0(12):26"/>
				<v:ud v:nameU="msvThemeColors" v:val="VT0(36):26"/>
				<v:ud v:nameU="msvThemeEffects" v:val="VT0(16):26"/>
			</v:userDefs>
			<title>Open/closed bar.37</title>
			<g id="shape38-143" v:mID="38" v:groupContext="shape">
				<title>Sheet.38</title>
				<v:userDefs>
					<v:ud v:nameU="msvThemeColors" v:val="VT0(36):26"/>
					<v:ud v:nameU="msvThemeEffects" v:val="VT0(16):26"/>
				</v:userDefs>
				<g id="shadow38-144" v:groupContext="shadow" v:shadowOffsetX="1.44" v:shadowOffsetY="-1.44" v:shadowType="1"
						transform="matrix(1,0,0,1,1.44,1.44)" class="st1">
					<path d="M0 324 L244.8 324 L244.8 273.6 L0 273.6 L0 324 Z" class="st10"/>
					<path d="M0 324 L244.8 324 L244.8 273.6 L0 273.6" class="st5"/>
				</g>
				<path d="M0 324 L244.8 324 L244.8 273.6 L0 273.6 L0 324 Z" class="st11"/>
				<path d="M0 324 L244.8 324 L244.8 273.6 L0 273.6" class="st6"/>
			</g>
			<g id="shape39-150" v:mID="39" v:groupContext="shape">
				<title>Sheet.39</title>
				<v:userDefs>
					<v:ud v:nameU="msvThemeColors" v:val="VT0(36):26"/>
					<v:ud v:nameU="msvThemeEffects" v:val="VT0(16):26"/>
				</v:userDefs>
				<path d="M0 324 L244.8 324 L0 324 ZM0 273.6 L244.8 273.6 L0 273.6 Z" class="st11"/>
				<path d="M0 324 L244.8 324" class="st6"/>
				<path d="" class="st6"/>
				<path d="M0 273.6 L244.8 273.6" class="st6"/>
				<path d="" class="st6"/>
				<path d="M0 324 L0 273.6" class="st6"/>
				<path d="M244.8 324 L244.8 273.6" class="st6"/>
			</g>
			<g id="shape40-159" v:mID="40" v:groupContext="shape" transform="translate(-0.375,-0.5)">
				<title>Sheet.40</title>
				<v:userDefs>
					<v:ud v:nameU="msvThemeColors" v:val="VT0(36):26"/>
					<v:ud v:nameU="msvThemeEffects" v:val="VT0(16):26"/>
				</v:userDefs>
				<rect x="0" y="274.6" width="0.5" height="49.4" class="st12"/>
			</g>
			<g id="shape41-162" v:mID="41" v:groupContext="shape" transform="translate(244.675,-0.5)">
				<title>Sheet.41</title>
				<v:userDefs>
					<v:ud v:nameU="msvThemeColors" v:val="VT0(36):26"/>
					<v:ud v:nameU="msvThemeEffects" v:val="VT0(16):26"/>
				</v:userDefs>
				<rect x="0" y="274.6" width="0.5" height="49.4" class="st12"/>
			</g>
		</g>
		<g id="shape42-165" v:mID="42" v:groupContext="shape" transform="translate(28.8,-144)">
			<title>Circle.42</title>
			<desc>‘a’</desc>
			<v:userDefs>
				<v:ud v:nameU="visVersion" v:val="VT0(12):26"/>
				<v:ud v:nameU="msvThemeColors" v:val="VT0(36):26"/>
				<v:ud v:nameU="msvThemeEffects" v:val="VT0(16):26"/>
			</v:userDefs>
			<v:textBlock v:margins="rect(4,4,4,4)"/>
			<v:textRect cx="18" cy="306" width="36" height="36"/>
			<g id="shadow42-166" v:groupContext="shadow" v:shadowOffsetX="1.44" v:shadowOffsetY="-1.44" v:shadowType="1"
					transform="matrix(1,0,0,1,1.44,1.44)" class="st1">
				<path d="M0 306 A18 18 0 0 1 36 306 A18 18 0 1 1 0 306 Z" class="st2"/>
			</g>
			<path d="M0 306 A18 18 0 0 1 36 306 A18 18 0 1 1 0 306 Z" class="st3"/>
			<text x="10.94" y="310.2" class="st4" v:langID="1033"><v:paragraph v:horizAlign="1"/><v:tabList/>‘a’</text>		</g>
		<g id="shape43-171" v:mID="43" v:groupContext="shape" transform="translate(79.2,-144)">
			<title>Circle.43</title>
			<desc>‘:=’</desc>
			<v:userDefs>
				<v:ud v:nameU="visVersion" v:val="VT0(12):26"/>
				<v:ud v:nameU="msvThemeColors" v:val="VT0(36):26"/>
				<v:ud v:nameU="msvThemeEffects" v:val="VT0(16):26"/>
			</v:userDefs>
			<v:textBlock v:margins="rect(4,4,4,4)"/>
			<v:textRect cx="18" cy="306" width="36" height="36"/>
			<g id="shadow43-172" v:groupContext="shadow" v:shadowOffsetX="1.44" v:shadowOffsetY="-1.44" v:shadowType="1"
					transform="matrix(1,0,0,1,1.44,1.44)" class="st1">
				<path d="M0 306 A18 18 0 0 1 36 306 A18 18 0 1 1 0 306 Z" class="st2"/>
			</g>
			<path d="M0 306 A18 18 0 0 1 36 306 A18 18 0 1 1 0 306 Z" class="st3"/>
			<text x="8.97" y="310.2" class="st4" v:langID="1033"><v:paragraph v:horizAlign="1"/><v:tabList/>‘:=’</text>		</g>
		<g id="shape44-177" v:mID="44" v:groupContext="shape" transform="translate(129.6,-144)">
			<title>Circle.44</title>
			<desc>2</desc>
			<v:userDefs>
				<v:ud v:nameU="visVersion" v:val="VT0(12):26"/>
				<v:ud v:nameU="msvThemeColors" v:val="VT0(36):26"/>
				<v:ud v:nameU="msvThemeEffects" v:val="VT0(16):26"/>
			</v:userDefs>
			<v:textBlock v:margins="rect(4,4,4,4)"/>
			<v:textRect cx="18" cy="306" width="36" height="36"/>
			<g id="shadow44-178" v:groupContext="shadow" v:shadowOffsetX="1.44" v:shadowOffsetY="-1.44" v:shadowType="1"
					transform="matrix(1,0,0,1,1.44,1.44)" class="st1">
				<path d="M0 306 A18 18 0 0 1 36 306 A18 18 0 1 1 0 306 Z" class="st2"/>
			</g>
			<path d="M0 306 A18 18 0 0 1 36 306 A18 18 0 1 1 0 306 Z" class="st3"/>
			<text x="14.45" y="310.2" class="st4" v:langID="1033"><v:paragraph v:horizAlign="1"/><v:tabList/>2</text>		</g>
		<g id="shape45-183" v:mID="45" v:groupContext="shape" transform="translate(176.4,-144)">
			<title>Circle.45</title>
			<desc>‘+’</desc>
			<v:userDefs>
				<v:ud v:nameU="visVersion" v:val="VT0(12):26"/>
				<v:ud v:nameU="msvThemeColors" v:val="VT0(36):26"/>
				<v:ud v:nameU="msvThemeEffects" v:val="VT0(16):26"/>
			</v:userDefs>
			<v:textBlock v:margins="rect(4,4,4,4)"/>
			<v:textRect cx="18" cy="306" width="36" height="36"/>
			<g id="shadow45-184" v:groupContext="shadow" v:shadowOffsetX="1.44" v:shadowOffsetY="-1.44" v:shadowType="1"
					transform="matrix(1,0,0,1,1.44,1.44)" class="st1">
				<path d="M0 306 A18 18 0 0 1 36 306 A18 18 0 1 1 0 306 Z" class="st2"/>
			</g>
			<path d="M0 306 A18 18 0 0 1 36 306 A18 18 0 1 1 0 306 Z" class="st3"/>
			<text x="10.9" y="310.2" class="st4" v:langID="1033"><v:paragraph v:horizAlign="1"/><v:tabList/>‘+’</text>		</g>
		<g id="shape46-189" v:mID="46" v:groupContext="shape" transform="translate(223.2,-144)">
			<title>Circle.46</title>
			<desc>3.14</desc>
			<v:userDefs>
				<v:ud v:nameU="visVersion" v:val="VT0(12):26"/>
				<v:ud v:nameU="msvThemeColors" v:val="VT0(36):26"/>
				<v:ud v:nameU="msvThemeEffects" v:val="VT0(16):26"/>
			</v:userDefs>
			<v:textBlock v:margins="rect(4,4,4,4)"/>
			<v:textRect cx="18" cy="306" width="36" height="36"/>
			<g id="shadow46-190" v:groupContext="shadow" v:shadowOffsetX="1.44" v:shadowOffsetY="-1.44" v:shadowType="1"
					transform="matrix(1,0,0,1,1.44,1.44)" class="st1">
				<path d="M0 306 A18 18 0 0 1 36 306 A18 18 0 1 1 0 306 Z" class="st2"/>
			</g>
			<path d="M0 306 A18 18 0 0 1 36 306 A18 18 0 1 1 0 306 Z" class="st3"/>
			<text x="5.49" y="310.2" class="st4" v:langID="1033"><v:paragraph v:horizAlign="1"/><v:tabList/>3.14</text>		</g>
		<g id="group51-195" transform="translate(975.6,-21.6)" v:mID="51" v:groupContext="group">
			<v:userDefs>
				<v:ud v:nameU="OpenEnd" v:val="VT0(3):26"/>
				<v:ud v:nameU="visVersion" v:val="VT0(12):26"/>
				<v:ud v:nameU="msvThemeColors" v:val="VT0(36):26"/>
				<v:ud v:nameU="msvThemeEffects" v:val="VT0(16):26"/>
			</v:userDefs>
			<title>Open/closed bar.51</title>
			<g id="shape52-196" v:mID="52" v:groupContext="shape">
				<title>Sheet.52</title>
				<v:userDefs>
					<v:ud v:nameU="msvThemeColors" v:val="VT0(36):26"/>
					<v:ud v:nameU="msvThemeEffects" v:val="VT0(16):26"/>
				</v:userDefs>
				<g id="shadow52-197" v:groupContext="shadow" v:shadowOffsetX="1.44" v:shadowOffsetY="-1.44" v:shadowType="1"
						transform="matrix(1,0,0,1,1.44,1.44)" class="st1">
					<path d="M0 324 L122.4 324 L122.4 46.74 L0 46.74 L0 324 Z" class="st10"/>
					<path d="M0 324 L122.4 324 L122.4 46.74 L0 46.74" class="st5"/>
				</g>
				<path d="M0 324 L122.4 324 L122.4 46.74 L0 46.74 L0 324 Z" class="st11"/>
				<path d="M0 324 L122.4 324 L122.4 46.74 L0 46.74" class="st6"/>
			</g>
			<g id="shape53-203" v:mID="53" v:groupContext="shape">
				<title>Sheet.53</title>
				<v:userDefs>
					<v:ud v:nameU="msvThemeColors" v:val="VT0(36):26"/>
					<v:ud v:nameU="msvThemeEffects" v:val="VT0(16):26"/>
				</v:userDefs>
				<path d="M0 324 L122.4 324 L0 324 ZM0 46.74 L122.4 46.74 L0 46.74 Z" class="st11"/>
				<path d="M0 324 L122.4 324" class="st6"/>
				<path d="" class="st6"/>
				<path d="M0 46.74 L122.4 46.74" class="st6"/>
				<path d="" class="st6"/>
				<path d="M0 324 L0 46.74" class="st6"/>
				<path d="M122.4 324 L122.4 46.74" class="st6"/>
			</g>
			<g id="shape54-212" v:mID="54" v:groupContext="shape" transform="translate(-0.375,-0.5)">
				<title>Sheet.54</title>
				<v:userDefs>
					<v:ud v:nameU="msvThemeColors" v:val="VT0(36):26"/>
					<v:ud v:nameU="msvThemeEffects" v:val="VT0(16):26"/>
				</v:userDefs>
				<rect x="0" y="47.7438" width="0.5" height="276.256" class="st12"/>
			</g>
			<g id="shape55-215" v:mID="55" v:groupContext="shape" transform="translate(122.275,-0.5)">
				<title>Sheet.55</title>
				<v:userDefs>
					<v:ud v:nameU="msvThemeColors" v:val="VT0(36):26"/>
					<v:ud v:nameU="msvThemeEffects" v:val="VT0(16):26"/>
				</v:userDefs>
				<rect x="0" y="47.7438" width="0.5" height="276.256" class="st12"/>
			</g>
		</g>
		<g id="shape56-218" v:mID="56" v:groupContext="shape" transform="translate(989.28,-75.6)">
			<title>Box</title>
			<desc>DEC_TO_INT</desc>
			<v:userDefs>
				<v:ud v:nameU="visVersion" v:val="VT0(12):26"/>
				<v:ud v:nameU="msvThemeColors" v:val="VT0(36):26"/>
				<v:ud v:nameU="msvThemeEffects" v:val="VT0(16):26"/>
			</v:userDefs>
			<v:textBlock v:margins="rect(4,4,4,4)"/>
			<v:textRect cx="48.6" cy="306" width="97.2" height="36"/>
			<g id="shadow56-219" v:groupContext="shadow" v:shadowOffsetX="1.44" v:shadowOffsetY="-1.44" v:shadowType="1"
					transform="matrix(1,0,0,1,1.44,1.44)" class="st1">
				<rect x="0" y="288" width="97.2" height="36" class="st2"/>
			</g>
			<rect x="0" y="288" width="97.2" height="36" class="st13"/>
			<text x="22.77" y="309" class="st8" v:langID="1033"><v:paragraph v:horizAlign="1"/><v:tabList/>DEC_TO_INT</text>		</g>
		<g id="shape57-225" v:mID="57" v:groupContext="shape" transform="translate(989.28,-248.4)">
			<title>Box.12</title>
			<desc>LOAD_DEC value=3.14</desc>
			<v:userDefs>
				<v:ud v:nameU="visVersion" v:val="VT0(12):26"/>
				<v:ud v:nameU="msvThemeColors" v:val="VT0(36):26"/>
				<v:ud v:nameU="msvThemeEffects" v:val="VT0(16):26"/>
			</v:userDefs>
			<v:textBlock v:margins="rect(4,4,4,4)"/>
			<v:textRect cx="48.6" cy="306" width="97.2" height="36"/>
			<g id="shadow57-226" v:groupContext="shadow" v:shadowOffsetX="1.44" v:shadowOffsetY="-1.44" v:shadowType="1"
					transform="matrix(1,0,0,1,1.44,1.44)" class="st1">
				<rect x="0" y="288" width="97.2" height="36" class="st2"/>
			</g>
			<rect x="0" y="288" width="97.2" height="36" class="st13"/>
			<text x="26.54" y="303" class="st8" v:langID="1033"><v:paragraph v:horizAlign="1"/><v:tabList/>LOAD_DEC<v:newlineChar/><tspan
						x="26.33" dy="1.2em" class="st9">value=3.14</tspan></text>		</g>
		<g id="shape58-232" v:mID="58" v:groupContext="shape" transform="translate(989.28,-205.2)">
			<title>Box.13</title>
			<desc>LOAD_INT value=2</desc>
			<v:userDefs>
				<v:ud v:nameU="visVersion" v:val="VT0(12):26"/>
				<v:ud v:nameU="msvThemeColors" v:val="VT0(36):26"/>
				<v:ud v:nameU="msvThemeEffects" v:val="VT0(16):26"/>
			</v:userDefs>
			<v:textBlock v:margins="rect(4,4,4,4)"/>
			<v:textRect cx="48.6" cy="306" width="97.2" height="36"/>
			<g id="shadow58-233" v:groupContext="shadow" v:shadowOffsetX="1.44" v:shadowOffsetY="-1.44" v:shadowType="1"
					transform="matrix(1,0,0,1,1.44,1.44)" class="st1">
				<rect x="0" y="288" width="97.2" height="36" class="st2"/>
			</g>
			<rect x="0" y="288" width="97.2" height="36" class="st13"/>
			<text x="27.8" y="303" class="st8" v:langID="1033"><v:paragraph v:horizAlign="1"/><v:tabList/>LOAD_INT<v:newlineChar/><tspan
						x="32.66" dy="1.2em" class="st9">value=2</tspan></text>		</g>
		<g id="shape59-239" v:mID="59" v:groupContext="shape" transform="translate(989.28,-162)">
			<title>Box.14</title>
			<desc>INT_TO_DEC</desc>
			<v:userDefs>
				<v:ud v:nameU="visVersion" v:val="VT0(12):26"/>
				<v:ud v:nameU="msvThemeColors" v:val="VT0(36):26"/>
				<v:ud v:nameU="msvThemeEffects" v:val="VT0(16):26"/>
			</v:userDefs>
			<v:textBlock v:margins="rect(4,4,4,4)"/>
			<v:textRect cx="48.6" cy="306" width="97.2" height="36"/>
			<g id="shadow59-240" v:groupContext="shadow" v:shadowOffsetX="1.44" v:shadowOffsetY="-1.44" v:shadowType="1"
					transform="matrix(1,0,0,1,1.44,1.44)" class="st1">
				<rect x="0" y="288" width="97.2" height="36" class="st2"/>
			</g>
			<rect x="0" y="288" width="97.2" height="36" class="st13"/>
			<text x="22.77" y="309" class="st8" v:langID="1033"><v:paragraph v:horizAlign="1"/><v:tabList/>INT_TO_DEC</text>		</g>
		<g id="shape60-245" v:mID="60" v:groupContext="shape" transform="translate(989.28,-118.8)">
			<title>Box.15</title>
			<desc>ADD_DEC</desc>
			<v:userDefs>
				<v:ud v:nameU="visVersion" v:val="VT0(12):26"/>
				<v:ud v:nameU="msvThemeColors" v:val="VT0(36):26"/>
				<v:ud v:nameU="msvThemeEffects" v:val="VT0(16):26"/>
			</v:userDefs>
			<v:textBlock v:margins="rect(4,4,4,4)"/>
			<v:textRect cx="48.6" cy="306" width="97.2" height="36"/>
			<g id="shadow60-246" v:groupContext="shadow" v:shadowOffsetX="1.44" v:shadowOffsetY="-1.44" v:shadowType="1"
					transform="matrix(1,0,0,1,1.44,1.44)" class="st1">
				<rect x="0" y="288" width="97.2" height="36" class="st2"/>
			</g>
			<rect x="0" y="288" width="97.2" height="36" class="st13"/>
			<text x="28.88" y="309" class="st8" v:langID="1033"><v:paragraph v:horizAlign="1"/><v:tabList/>ADD_DEC</text>		</g>
		<g id="shape61-251" v:mID="61" v:groupContext="shape" transform="translate(989.28,-32.4)">
			<title>Box.16</title>
			<desc>STOR_INT index=0</desc>
			<v:userDefs>
				<v:ud v:nameU="visVersion" v:val="VT0(12):26"/>
				<v:ud v:nameU="msvThemeColors" v:val="VT0(36):26"/>
				<v:ud v:nameU="msvThemeEffects" v:val="VT0(16):26"/>
			</v:userDefs>
			<v:textBlock v:margins="rect(4,4,4,4)"/>
			<v:textRect cx="48.6" cy="306" width="97.2" height="36"/>
			<g id="shadow61-252" v:groupContext="shadow" v:shadowOffsetX="1.44" v:shadowOffsetY="-1.44" v:shadowType="1"
					transform="matrix(1,0,0,1,1.44,1.44)" class="st1">
				<rect x="0" y="288" width="97.2" height="36" class="st2"/>
			</g>
			<rect x="0" y="288" width="97.2" height="36" class="st13"/>
			<text x="28.43" y="303" class="st8" v:langID="1033"><v:paragraph v:horizAlign="1"/><v:tabList/>STOR_INT<v:newlineChar/><tspan
						x="32.52" dy="1.2em" class="st9">index=0</tspan></text>		</g>
		<g id="group63-258" transform="translate(284.4,-140.4)" v:mID="63" v:groupContext="group">
			<v:userDefs>
				<v:ud v:nameU="visVersion" v:val="VT0(12):26"/>
				<v:ud v:nameU="msvThemeColors" v:val="VT0(36):26"/>
				<v:ud v:nameU="msvThemeEffects" v:val="VT0(16):26"/>
			</v:userDefs>
			<title>1-D single, open</title>
			<g id="shape64-259" v:mID="64" v:groupContext="shape">
				<title>Sheet.64</title>
				<v:userDefs>
					<v:ud v:nameU="msvThemeColors" v:val="VT0(36):26"/>
					<v:ud v:nameU="msvThemeEffects" v:val="VT0(16):26"/>
				</v:userDefs>
				<g id="shadow64-260" v:groupContext="shadow" v:shadowOffsetX="1.44" v:shadowOffsetY="-1.44" v:shadowType="1"
						transform="matrix(1,0,0,1,1.44,1.44)" class="st1">
					<path d="M-0.75 315 L34.2 315 L34.2 324 L43.2 306 L34.2 288 L34.2 297 L-0.75 297 L-0.75 315 Z" class="st10"/>
					<path d="M-0.75 315 L34.2 315 L34.2 324 L43.2 306 L34.2 288 L34.2 297 L-0.75 297" class="st5"/>
				</g>
				<path d="M-0.75 315 L34.2 315 L34.2 324 L43.2 306 L34.2 288 L34.2 297 L-0.75 297 L-0.75 315 Z" class="st14"/>
				<path d="M-0.75 315 L34.2 315 L34.2 324 L43.2 306 L34.2 288 L34.2 297 L-0.75 297" class="st6"/>
			</g>
			<g id="shape65-267" v:mID="65" v:groupContext="shape">
				<title>Sheet.65</title>
				<v:userDefs>
					<v:ud v:nameU="msvThemeColors" v:val="VT0(36):26"/>
					<v:ud v:nameU="msvThemeEffects" v:val="VT0(16):26"/>
				</v:userDefs>
				<path d="M0 315 L34.2 315 L34.2 324 L43.2 306 L34.2 288 L34.2 297 L0 297" class="st6"/>
			</g>
			<g id="shape66-271" v:mID="66" v:groupContext="shape" transform="translate(-0.5,-9.25)">
				<title>Sheet.66</title>
				<v:userDefs>
					<v:ud v:nameU="msvThemeColors" v:val="VT0(36):26"/>
					<v:ud v:nameU="msvThemeEffects" v:val="VT0(16):26"/>
				</v:userDefs>
				<rect x="0" y="306.5" width="0.5" height="17.5" class="st15"/>
			</g>
		</g>
		<g id="group75-274" transform="translate(518.4,-140.4)" v:mID="75" v:groupContext="group">
			<v:userDefs>
				<v:ud v:nameU="visVersion" v:val="VT0(12):26"/>
				<v:ud v:nameU="msvThemeColors" v:val="VT0(36):26"/>
				<v:ud v:nameU="msvThemeEffects" v:val="VT0(16):26"/>
			</v:userDefs>
			<title>1-D single, open.75</title>
			<g id="shape76-275" v:mID="76" v:groupContext="shape">
				<title>Sheet.76</title>
				<v:userDefs>
					<v:ud v:nameU="msvThemeColors" v:val="VT0(36):26"/>
					<v:ud v:nameU="msvThemeEffects" v:val="VT0(16):26"/>
				</v:userDefs>
				<g id="shadow76-276" v:groupContext="shadow" v:shadowOffsetX="1.44" v:shadowOffsetY="-1.44" v:shadowType="1"
						transform="matrix(1,0,0,1,1.44,1.44)" class="st1">
					<path d="M-0.75 315 L34.2 315 L34.2 324 L43.2 306 L34.2 288 L34.2 297 L-0.75 297 L-0.75 315 Z" class="st10"/>
					<path d="M-0.75 315 L34.2 315 L34.2 324 L43.2 306 L34.2 288 L34.2 297 L-0.75 297" class="st5"/>
				</g>
				<path d="M-0.75 315 L34.2 315 L34.2 324 L43.2 306 L34.2 288 L34.2 297 L-0.75 297 L-0.75 315 Z" class="st14"/>
				<path d="M-0.75 315 L34.2 315 L34.2 324 L43.2 306 L34.2 288 L34.2 297 L-0.75 297" class="st6"/>
			</g>
			<g id="shape77-282" v:mID="77" v:groupContext="shape">
				<title>Sheet.77</title>
				<v:userDefs>
					<v:ud v:nameU="msvThemeColors" v:val="VT0(36):26"/>
					<v:ud v:nameU="msvThemeEffects" v:val="VT0(16):26"/>
				</v:userDefs>
				<path d="M0 315 L34.2 315 L34.2 324 L43.2 306 L34.2 288 L34.2 297 L0 297" class="st6"/>
			</g>
			<g id="shape78-286" v:mID="78" v:groupContext="shape" transform="translate(-0.5,-9.25)">
				<title>Sheet.78</title>
				<v:userDefs>
					<v:ud v:nameU="msvThemeColors" v:val="VT0(36):26"/>
					<v:ud v:nameU="msvThemeEffects" v:val="VT0(16):26"/>
				</v:userDefs>
				<rect x="0" y="306.5" width="0.5" height="17.5" class="st15"/>
			</g>
		</g>
		<g id="group79-289" transform="translate(914.4,-147.6)" v:mID="79" v:groupContext="group">
			<v:userDefs>
				<v:ud v:nameU="visVersion" v:val="VT0(12):26"/>
				<v:ud v:nameU="msvThemeColors" v:val="VT0(36):26"/>
				<v:ud v:nameU="msvThemeEffects" v:val="VT0(16):26"/>
			</v:userDefs>
			<title>1-D single, open.79</title>
			<g id="shape80-290" v:mID="80" v:groupContext="shape">
				<title>Sheet.80</title>
				<v:userDefs>
					<v:ud v:nameU="msvThemeColors" v:val="VT0(36):26"/>
					<v:ud v:nameU="msvThemeEffects" v:val="VT0(16):26"/>
				</v:userDefs>
				<g id="shadow80-291" v:groupContext="shadow" v:shadowOffsetX="1.44" v:shadowOffsetY="-1.44" v:shadowType="1"
						transform="matrix(1,0,0,1,1.44,1.44)" class="st1">
					<path d="M-0.75 315 L34.2 315 L34.2 324 L43.2 306 L34.2 288 L34.2 297 L-0.75 297 L-0.75 315 Z" class="st10"/>
					<path d="M-0.75 315 L34.2 315 L34.2 324 L43.2 306 L34.2 288 L34.2 297 L-0.75 297" class="st5"/>
				</g>
				<path d="M-0.75 315 L34.2 315 L34.2 324 L43.2 306 L34.2 288 L34.2 297 L-0.75 297 L-0.75 315 Z" class="st14"/>
				<path d="M-0.75 315 L34.2 315 L34.2 324 L43.2 306 L34.2 288 L34.2 297 L-0.75 297" class="st6"/>
			</g>
			<g id="shape81-297" v:mID="81" v:groupContext="shape">
				<title>Sheet.81</title>
				<v:userDefs>
					<v:ud v:nameU="msvThemeColors" v:val="VT0(36):26"/>
					<v:ud v:nameU="msvThemeEffects" v:val="VT0(16):26"/>
				</v:userDefs>
				<path d="M0 315 L34.2 315 L34.2 324 L43.2 306 L34.2 288 L34.2 297 L0 297" class="st6"/>
			</g>
			<g id="shape82-301" v:mID="82" v:groupContext="shape" transform="translate(-0.5,-9.25)">
				<title>Sheet.82</title>
				<v:userDefs>
					<v:ud v:nameU="msvThemeColors" v:val="VT0(36):26"/>
					<v:ud v:nameU="msvThemeEffects" v:val="VT0(16):26"/>
				</v:userDefs>
				<rect x="0" y="306.5" width="0.5" height="17.5" class="st15"/>
			</g>
		</g>
	</g>
</svg>
